<svg width="57" height="186" viewBox="0 0 57 186" fill="none" xmlns="http://www.w3.org/2000/svg">
<path d="M29.2647 260.534C29.2736 251.49 27.9798 253.303 27.9887 244.383C27.9975 235.464 29.2878 237.154 29.2967 228.235C29.3055 219.315 28.0119 221.003 28.0207 212.083C28.0296 203.164 29.3199 204.854 29.3287 195.935C29.3376 187.015 28.0439 188.703 28.0527 179.783C28.0616 170.864 29.3519 172.554 29.3608 163.635C29.3696 154.715 28.0759 156.403 28.0848 147.483C28.0936 138.564 29.384 140.254 29.3928 131.335C29.4016 122.415 28.108 124.103 28.1168 115.183C28.1257 106.264 29.416 107.954 29.4248 99.0346C29.4337 90.1152 28.14 91.8027 28.1489 82.8833C28.1577 73.9639 29.448 75.654 29.4569 66.7346C29.4657 57.8152 28.172 59.5027 28.1809 50.5833C28.1897 41.6639 29.4801 43.354 29.4889 34.4346C29.4977 25.5152 28.2041 27.2027 28.2129 18.2833C28.2218 9.36394 29.4312 11.1785 29.5209 2.13462" stroke="#FFC91B" stroke-width="2.584" stroke-linecap="round" stroke-linejoin="round"/>
<path d="M55.0405 325.16C55.0495 316.116 53.7557 317.928 53.7646 309.009C53.7734 300.089 55.0637 301.78 55.0726 292.86C55.0814 283.941 53.7877 285.628 53.7966 276.709C53.8054 267.789 55.0958 269.48 55.1046 260.56C55.1135 251.641 53.8198 253.328 53.8286 244.409C53.8375 235.489 55.1278 237.18 55.1366 228.26C55.1455 219.341 53.8518 221.028 53.8607 212.109C53.8695 203.189 55.1598 204.88 55.1687 195.96C55.1775 187.041 53.8838 188.728 53.8927 179.809C53.9015 170.889 55.1919 172.58 55.2007 163.66C55.2096 154.741 53.9159 156.428 53.9247 147.509C53.9336 138.59 55.2239 140.28 55.2327 131.36C55.2416 122.441 53.9479 124.128 53.9568 115.209C53.9656 106.29 55.2559 107.98 55.2648 99.0602C55.2736 90.1408 53.98 91.8283 53.9888 82.9089C53.9976 73.9895 55.2071 75.8041 55.2968 66.7602" stroke="#00AF91" stroke-width="2.584" stroke-linecap="round" stroke-linejoin="round"/>
<path d="M3.39259 292.809C3.40156 283.765 2.10776 285.577 2.1166 276.658C2.12545 267.738 3.41577 269.428 3.42462 260.509C3.43347 251.589 2.13979 253.277 2.14864 244.358C2.15749 235.438 3.44781 237.128 3.45666 228.209C3.4655 219.289 2.17183 220.977 2.18067 212.058C2.18952 203.138 3.47984 204.828 3.48869 195.909C3.49754 186.989 2.20386 188.677 2.21271 179.758C2.22156 170.838 3.51188 172.528 3.52073 163.609C3.52957 154.69 2.2359 156.377 2.24475 147.458C2.25359 138.538 3.54392 140.228 3.55276 131.309C3.56161 122.39 2.26793 124.077 2.27678 115.158C2.28563 106.238 3.57595 107.928 3.5848 99.0089C3.59364 90.0895 2.29997 91.7771 2.30882 82.8577C2.31766 73.9383 3.60799 75.6284 3.61683 66.709C3.62568 57.7896 2.332 59.4771 2.34085 50.5577C2.3497 41.6383 3.55915 43.4529 3.64887 34.409" stroke="#FF7A1A" stroke-width="2.584" stroke-linecap="round" stroke-linejoin="round"/>
</svg>
