<svg width="210" height="69" viewBox="0 0 210 69" fill="none" xmlns="http://www.w3.org/2000/svg">
<g opacity="0.5">
<path d="M70.0959 39.7289C79.5879 39.7383 77.6955 28.8884 87.0567 28.8977C96.4179 28.907 94.6347 39.7532 103.996 39.7625C113.357 39.7718 111.595 28.922 120.957 28.9313C130.318 28.9406 128.535 39.7868 137.896 39.7961C147.257 39.8054 145.495 28.9556 154.857 28.9649C164.218 28.9742 162.435 39.8204 171.796 39.8297C181.157 39.839 179.395 28.9893 188.757 28.9985C198.118 29.0078 196.335 39.8541 205.696 39.8633C215.057 39.8726 213.295 29.0229 222.657 29.0322C232.018 29.0415 230.235 39.8877 239.596 39.897C248.957 39.9063 247.195 29.0565 256.557 29.0658C265.918 29.0751 264.135 39.9213 273.496 39.9306C282.857 39.9399 281.095 29.0901 290.457 29.0994C299.818 29.1087 298.035 39.9549 307.396 39.9642C316.757 39.9735 314.995 29.1238 324.357 29.133C333.718 29.1423 331.804 39.3104 341.296 39.9978" stroke="white" stroke-width="2.712" stroke-linecap="round" stroke-linejoin="round"/>
<path d="M2.26903 66.7817C11.761 66.7911 9.86855 55.9412 19.2298 55.9505C28.591 55.9598 26.8078 66.806 36.169 66.8153C45.5302 66.8246 43.7685 55.9748 53.1298 55.9841C62.491 55.9934 60.7078 66.8396 70.069 66.8489C79.4302 66.8582 77.6685 56.0084 87.0297 56.0177C96.391 56.027 94.6078 66.8732 103.969 66.8825C113.33 66.8918 111.569 56.0421 120.93 56.0513C130.291 56.0606 128.508 66.9069 137.869 66.9161C147.23 66.9254 145.468 56.0757 154.83 56.085C164.191 56.0942 162.408 66.9405 171.769 66.9498C181.13 66.9591 179.368 56.1093 188.73 56.1186C198.091 56.1279 196.308 66.9741 205.669 66.9834C215.03 66.9927 213.268 56.1429 222.63 56.1522C231.991 56.1615 230.208 67.0077 239.569 67.017C248.93 67.0263 247.168 56.1765 256.53 56.1858C265.891 56.1951 263.978 66.3632 273.469 67.0506" stroke="white" stroke-width="2.712" stroke-linecap="round" stroke-linejoin="round"/>
<path d="M36.2229 12.5753C45.7149 12.5847 43.8224 1.73482 53.1836 1.74411C62.5449 1.75339 60.7616 12.5996 70.1229 12.6089C79.4841 12.6182 77.7224 1.76845 87.0836 1.77773C96.4448 1.78702 94.6616 12.6333 104.023 12.6425C113.384 12.6518 111.622 1.80207 120.984 1.81135C130.345 1.82064 128.562 12.6669 137.923 12.6762C147.284 12.6854 145.522 1.83569 154.884 1.84498C164.245 1.85426 162.462 12.7005 171.823 12.7098C181.184 12.7191 179.422 1.86932 188.784 1.8786C198.145 1.88789 196.362 12.7341 205.723 12.7434C215.084 12.7527 213.322 1.90294 222.684 1.91223C232.045 1.92151 230.262 12.7677 239.623 12.777C248.984 12.7863 247.222 1.93656 256.584 1.94585C265.945 1.95513 264.162 12.8014 273.523 12.8107C282.884 12.8199 281.122 1.97019 290.484 1.97947C299.845 1.98876 297.931 12.1569 307.423 12.8443" stroke="white" stroke-width="2.712" stroke-linecap="round" stroke-linejoin="round"/>
</g>
</svg>
