<svg width="218" height="205" viewBox="0 0 218 205" fill="none" xmlns="http://www.w3.org/2000/svg">
<rect x="0.75" y="0.75" width="216.5" height="203.5" rx="4.25" fill="white" stroke="#EBEBF2" stroke-width="1.5"/>
<path d="M80.2991 132.04C81.7657 132.04 83.0524 132.327 84.1591 132.9C85.2791 133.473 86.1391 134.293 86.7391 135.36C87.3524 136.413 87.6591 137.64 87.6591 139.04C87.6591 140.44 87.3524 141.667 86.7391 142.72C86.1391 143.76 85.2791 144.567 84.1591 145.14C83.0524 145.713 81.7657 146 80.2991 146H75.4191V132.04H80.2991ZM80.1991 143.62C81.6657 143.62 82.7991 143.22 83.5991 142.42C84.3991 141.62 84.7991 140.493 84.7991 139.04C84.7991 137.587 84.3991 136.453 83.5991 135.64C82.7991 134.813 81.6657 134.4 80.1991 134.4H78.2191V143.62H80.1991ZM100.055 140.22C100.055 140.62 100.028 140.98 99.975 141.3H91.875C91.9417 142.1 92.2217 142.727 92.715 143.18C93.2083 143.633 93.815 143.86 94.535 143.86C95.575 143.86 96.315 143.413 96.755 142.52H99.775C99.455 143.587 98.8417 144.467 97.935 145.16C97.0283 145.84 95.915 146.18 94.595 146.18C93.5283 146.18 92.5683 145.947 91.715 145.48C90.875 145 90.215 144.327 89.735 143.46C89.2683 142.593 89.035 141.593 89.035 140.46C89.035 139.313 89.2683 138.307 89.735 137.44C90.2017 136.573 90.855 135.907 91.695 135.44C92.535 134.973 93.5017 134.74 94.595 134.74C95.6483 134.74 96.5883 134.967 97.415 135.42C98.255 135.873 98.9017 136.52 99.355 137.36C99.8217 138.187 100.055 139.14 100.055 140.22ZM97.155 139.42C97.1417 138.7 96.8817 138.127 96.375 137.7C95.8683 137.26 95.2483 137.04 94.515 137.04C93.8217 137.04 93.235 137.253 92.755 137.68C92.2883 138.093 92.0017 138.673 91.895 139.42H97.155ZM106.339 146.18C105.432 146.18 104.619 146.02 103.899 145.7C103.179 145.367 102.605 144.92 102.179 144.36C101.765 143.8 101.539 143.18 101.499 142.5H104.319C104.372 142.927 104.579 143.28 104.939 143.56C105.312 143.84 105.772 143.98 106.319 143.98C106.852 143.98 107.265 143.873 107.559 143.66C107.865 143.447 108.019 143.173 108.019 142.84C108.019 142.48 107.832 142.213 107.459 142.04C107.099 141.853 106.519 141.653 105.719 141.44C104.892 141.24 104.212 141.033 103.679 140.82C103.159 140.607 102.705 140.28 102.319 139.84C101.945 139.4 101.759 138.807 101.759 138.06C101.759 137.447 101.932 136.887 102.279 136.38C102.639 135.873 103.145 135.473 103.799 135.18C104.465 134.887 105.245 134.74 106.139 134.74C107.459 134.74 108.512 135.073 109.299 135.74C110.085 136.393 110.519 137.28 110.599 138.4H107.919C107.879 137.96 107.692 137.613 107.359 137.36C107.039 137.093 106.605 136.96 106.059 136.96C105.552 136.96 105.159 137.053 104.879 137.24C104.612 137.427 104.479 137.687 104.479 138.02C104.479 138.393 104.665 138.68 105.039 138.88C105.412 139.067 105.992 139.26 106.779 139.46C107.579 139.66 108.239 139.867 108.759 140.08C109.279 140.293 109.725 140.627 110.099 141.08C110.485 141.52 110.685 142.107 110.699 142.84C110.699 143.48 110.519 144.053 110.159 144.56C109.812 145.067 109.305 145.467 108.639 145.76C107.985 146.04 107.219 146.18 106.339 146.18ZM114.417 133.6C113.924 133.6 113.511 133.447 113.177 133.14C112.857 132.82 112.697 132.427 112.697 131.96C112.697 131.493 112.857 131.107 113.177 130.8C113.511 130.48 113.924 130.32 114.417 130.32C114.911 130.32 115.317 130.48 115.637 130.8C115.971 131.107 116.137 131.493 116.137 131.96C116.137 132.427 115.971 132.82 115.637 133.14C115.317 133.447 114.911 133.6 114.417 133.6ZM115.797 134.92V146H112.997V134.92H115.797ZM122.904 134.74C123.73 134.74 124.457 134.907 125.084 135.24C125.71 135.56 126.204 135.98 126.564 136.5V134.92H129.384V146.08C129.384 147.107 129.177 148.02 128.764 148.82C128.35 149.633 127.73 150.273 126.904 150.74C126.077 151.22 125.077 151.46 123.904 151.46C122.33 151.46 121.037 151.093 120.024 150.36C119.024 149.627 118.457 148.627 118.324 147.36H121.104C121.25 147.867 121.564 148.267 122.044 148.56C122.537 148.867 123.13 149.02 123.824 149.02C124.637 149.02 125.297 148.773 125.804 148.28C126.31 147.8 126.564 147.067 126.564 146.08V144.36C126.204 144.88 125.704 145.313 125.064 145.66C124.437 146.007 123.717 146.18 122.904 146.18C121.97 146.18 121.117 145.94 120.344 145.46C119.57 144.98 118.957 144.307 118.504 143.44C118.064 142.56 117.844 141.553 117.844 140.42C117.844 139.3 118.064 138.307 118.504 137.44C118.957 136.573 119.564 135.907 120.324 135.44C121.097 134.973 121.957 134.74 122.904 134.74ZM126.564 140.46C126.564 139.78 126.43 139.2 126.164 138.72C125.897 138.227 125.537 137.853 125.084 137.6C124.63 137.333 124.144 137.2 123.624 137.2C123.104 137.2 122.624 137.327 122.184 137.58C121.744 137.833 121.384 138.207 121.104 138.7C120.837 139.18 120.704 139.753 120.704 140.42C120.704 141.087 120.837 141.673 121.104 142.18C121.384 142.673 121.744 143.053 122.184 143.32C122.637 143.587 123.117 143.72 123.624 143.72C124.144 143.72 124.63 143.593 125.084 143.34C125.537 143.073 125.897 142.7 126.164 142.22C126.43 141.727 126.564 141.14 126.564 140.46ZM138.258 134.76C139.578 134.76 140.645 135.18 141.458 136.02C142.272 136.847 142.678 138.007 142.678 139.5V146H139.878V139.88C139.878 139 139.658 138.327 139.218 137.86C138.778 137.38 138.178 137.14 137.418 137.14C136.645 137.14 136.032 137.38 135.578 137.86C135.138 138.327 134.918 139 134.918 139.88V146H132.118V134.92H134.918V136.3C135.292 135.82 135.765 135.447 136.338 135.18C136.925 134.9 137.565 134.76 138.258 134.76Z" fill="#202029"/>
<path d="M67.9679 167.978C69.1532 167.026 70.0819 166.247 70.7539 165.64C71.4259 165.024 71.9906 164.385 72.4479 163.722C72.9146 163.05 73.1479 162.392 73.1479 161.748C73.1479 161.141 72.9986 160.665 72.6999 160.32C72.4106 159.965 71.9392 159.788 71.2859 159.788C70.6512 159.788 70.1566 159.989 69.8019 160.39C69.4566 160.782 69.2699 161.309 69.2419 161.972H68.0099C68.0472 160.927 68.3646 160.119 68.9619 159.55C69.5592 158.981 70.3292 158.696 71.2719 158.696C72.2332 158.696 72.9939 158.962 73.5539 159.494C74.1232 160.026 74.4079 160.759 74.4079 161.692C74.4079 162.467 74.1746 163.223 73.7079 163.96C73.2506 164.688 72.7279 165.332 72.1399 165.892C71.5519 166.443 70.8006 167.087 69.8859 167.824H74.7019V168.888H67.9679V167.978ZM76.1466 161.426C76.212 160.567 76.5433 159.895 77.1406 159.41C77.738 158.925 78.5126 158.682 79.4646 158.682C80.0993 158.682 80.6453 158.799 81.1026 159.032C81.5693 159.256 81.9193 159.564 82.1526 159.956C82.3953 160.348 82.5166 160.791 82.5166 161.286C82.5166 161.865 82.3486 162.364 82.0126 162.784C81.686 163.204 81.2566 163.475 80.7246 163.596V163.666C81.3313 163.815 81.812 164.109 82.1666 164.548C82.5213 164.987 82.6986 165.561 82.6986 166.27C82.6986 166.802 82.5773 167.283 82.3346 167.712C82.092 168.132 81.728 168.463 81.2426 168.706C80.7573 168.949 80.174 169.07 79.4926 169.07C78.5033 169.07 77.6913 168.813 77.0566 168.3C76.422 167.777 76.0673 167.04 75.9926 166.088H77.2246C77.29 166.648 77.5186 167.105 77.9106 167.46C78.3026 167.815 78.8253 167.992 79.4786 167.992C80.132 167.992 80.6266 167.824 80.9626 167.488C81.308 167.143 81.4806 166.699 81.4806 166.158C81.4806 165.458 81.2473 164.954 80.7806 164.646C80.314 164.338 79.6093 164.184 78.6666 164.184H78.3446V163.12H78.6806C79.5393 163.111 80.188 162.971 80.6266 162.7C81.0653 162.42 81.2846 161.991 81.2846 161.412C81.2846 160.917 81.1213 160.521 80.7946 160.222C80.4773 159.923 80.02 159.774 79.4226 159.774C78.844 159.774 78.3773 159.923 78.0226 160.222C77.668 160.521 77.458 160.922 77.3926 161.426H76.1466ZM88.9128 169L85.9028 165.612V169H84.6288V158.64H85.9028V164.73L88.8568 161.328H90.6348L87.0228 165.15L90.6488 169H88.9128ZM95.0903 164.114C95.0903 163.162 95.3049 162.308 95.7343 161.552C96.1636 160.787 96.7469 160.189 97.4843 159.76C98.2309 159.331 99.0569 159.116 99.9623 159.116C101.026 159.116 101.955 159.373 102.748 159.886C103.542 160.399 104.12 161.127 104.484 162.07H102.958C102.688 161.482 102.296 161.029 101.782 160.712C101.278 160.395 100.672 160.236 99.9623 160.236C99.2809 160.236 98.6696 160.395 98.1283 160.712C97.5869 161.029 97.1623 161.482 96.8543 162.07C96.5463 162.649 96.3923 163.33 96.3923 164.114C96.3923 164.889 96.5463 165.57 96.8543 166.158C97.1623 166.737 97.5869 167.185 98.1283 167.502C98.6696 167.819 99.2809 167.978 99.9623 167.978C100.672 167.978 101.278 167.824 101.782 167.516C102.296 167.199 102.688 166.746 102.958 166.158H104.484C104.12 167.091 103.542 167.815 102.748 168.328C101.955 168.832 101.026 169.084 99.9623 169.084C99.0569 169.084 98.2309 168.874 97.4843 168.454C96.7469 168.025 96.1636 167.432 95.7343 166.676C95.3049 165.92 95.0903 165.066 95.0903 164.114ZM109.727 169.126C109.008 169.126 108.355 168.963 107.767 168.636C107.188 168.309 106.731 167.847 106.395 167.25C106.068 166.643 105.905 165.943 105.905 165.15C105.905 164.366 106.073 163.675 106.409 163.078C106.754 162.471 107.221 162.009 107.809 161.692C108.397 161.365 109.055 161.202 109.783 161.202C110.511 161.202 111.169 161.365 111.757 161.692C112.345 162.009 112.807 162.467 113.143 163.064C113.488 163.661 113.661 164.357 113.661 165.15C113.661 165.943 113.483 166.643 113.129 167.25C112.783 167.847 112.312 168.309 111.715 168.636C111.117 168.963 110.455 169.126 109.727 169.126ZM109.727 168.006C110.184 168.006 110.613 167.899 111.015 167.684C111.416 167.469 111.738 167.147 111.981 166.718C112.233 166.289 112.359 165.766 112.359 165.15C112.359 164.534 112.237 164.011 111.995 163.582C111.752 163.153 111.435 162.835 111.043 162.63C110.651 162.415 110.226 162.308 109.769 162.308C109.302 162.308 108.873 162.415 108.481 162.63C108.098 162.835 107.79 163.153 107.557 163.582C107.323 164.011 107.207 164.534 107.207 165.15C107.207 165.775 107.319 166.303 107.543 166.732C107.776 167.161 108.084 167.483 108.467 167.698C108.849 167.903 109.269 168.006 109.727 168.006ZM122.14 161.328V169H120.866V167.866C120.623 168.258 120.282 168.566 119.844 168.79C119.414 169.005 118.938 169.112 118.416 169.112C117.818 169.112 117.282 168.991 116.806 168.748C116.33 168.496 115.952 168.123 115.672 167.628C115.401 167.133 115.266 166.531 115.266 165.822V161.328H116.526V165.654C116.526 166.41 116.717 166.993 117.1 167.404C117.482 167.805 118.005 168.006 118.668 168.006C119.349 168.006 119.886 167.796 120.278 167.376C120.67 166.956 120.866 166.345 120.866 165.542V161.328H122.14ZM125.565 162.574C125.789 162.135 126.106 161.795 126.517 161.552C126.937 161.309 127.446 161.188 128.043 161.188V162.504H127.707C126.279 162.504 125.565 163.279 125.565 164.828V169H124.291V161.328H125.565V162.574ZM132.23 169.126C131.642 169.126 131.114 169.028 130.648 168.832C130.181 168.627 129.812 168.347 129.542 167.992C129.271 167.628 129.122 167.213 129.094 166.746H130.41C130.447 167.129 130.624 167.441 130.942 167.684C131.268 167.927 131.693 168.048 132.216 168.048C132.701 168.048 133.084 167.941 133.364 167.726C133.644 167.511 133.784 167.241 133.784 166.914C133.784 166.578 133.634 166.331 133.336 166.172C133.037 166.004 132.575 165.841 131.95 165.682C131.38 165.533 130.914 165.383 130.55 165.234C130.195 165.075 129.887 164.847 129.626 164.548C129.374 164.24 129.248 163.839 129.248 163.344C129.248 162.952 129.364 162.593 129.598 162.266C129.831 161.939 130.162 161.683 130.592 161.496C131.021 161.3 131.511 161.202 132.062 161.202C132.911 161.202 133.597 161.417 134.12 161.846C134.642 162.275 134.922 162.863 134.96 163.61H133.686C133.658 163.209 133.494 162.887 133.196 162.644C132.906 162.401 132.514 162.28 132.02 162.28C131.562 162.28 131.198 162.378 130.928 162.574C130.657 162.77 130.522 163.027 130.522 163.344C130.522 163.596 130.601 163.806 130.76 163.974C130.928 164.133 131.133 164.263 131.376 164.366C131.628 164.459 131.973 164.567 132.412 164.688C132.962 164.837 133.41 164.987 133.756 165.136C134.101 165.276 134.395 165.491 134.638 165.78C134.89 166.069 135.02 166.447 135.03 166.914C135.03 167.334 134.913 167.712 134.68 168.048C134.446 168.384 134.115 168.65 133.686 168.846C133.266 169.033 132.78 169.126 132.23 169.126ZM143.828 164.87C143.828 165.113 143.814 165.369 143.786 165.64H137.654C137.701 166.396 137.957 166.989 138.424 167.418C138.9 167.838 139.474 168.048 140.146 168.048C140.697 168.048 141.154 167.922 141.518 167.67C141.891 167.409 142.153 167.063 142.302 166.634H143.674C143.469 167.371 143.058 167.973 142.442 168.44C141.826 168.897 141.061 169.126 140.146 169.126C139.418 169.126 138.765 168.963 138.186 168.636C137.617 168.309 137.169 167.847 136.842 167.25C136.515 166.643 136.352 165.943 136.352 165.15C136.352 164.357 136.511 163.661 136.828 163.064C137.145 162.467 137.589 162.009 138.158 161.692C138.737 161.365 139.399 161.202 140.146 161.202C140.874 161.202 141.518 161.361 142.078 161.678C142.638 161.995 143.067 162.434 143.366 162.994C143.674 163.545 143.828 164.17 143.828 164.87ZM142.512 164.604C142.512 164.119 142.405 163.703 142.19 163.358C141.975 163.003 141.681 162.737 141.308 162.56C140.944 162.373 140.538 162.28 140.09 162.28C139.446 162.28 138.895 162.485 138.438 162.896C137.99 163.307 137.733 163.876 137.668 164.604H142.512ZM148.226 169.126C147.638 169.126 147.11 169.028 146.644 168.832C146.177 168.627 145.808 168.347 145.538 167.992C145.267 167.628 145.118 167.213 145.09 166.746H146.406C146.443 167.129 146.62 167.441 146.938 167.684C147.264 167.927 147.689 168.048 148.212 168.048C148.697 168.048 149.08 167.941 149.36 167.726C149.64 167.511 149.78 167.241 149.78 166.914C149.78 166.578 149.63 166.331 149.332 166.172C149.033 166.004 148.571 165.841 147.946 165.682C147.376 165.533 146.91 165.383 146.546 165.234C146.191 165.075 145.883 164.847 145.622 164.548C145.37 164.24 145.244 163.839 145.244 163.344C145.244 162.952 145.36 162.593 145.594 162.266C145.827 161.939 146.158 161.683 146.588 161.496C147.017 161.3 147.507 161.202 148.058 161.202C148.907 161.202 149.593 161.417 150.116 161.846C150.638 162.275 150.918 162.863 150.956 163.61H149.682C149.654 163.209 149.49 162.887 149.192 162.644C148.902 162.401 148.51 162.28 148.016 162.28C147.558 162.28 147.194 162.378 146.924 162.574C146.653 162.77 146.518 163.027 146.518 163.344C146.518 163.596 146.597 163.806 146.756 163.974C146.924 164.133 147.129 164.263 147.372 164.366C147.624 164.459 147.969 164.567 148.408 164.688C148.958 164.837 149.406 164.987 149.752 165.136C150.097 165.276 150.391 165.491 150.634 165.78C150.886 166.069 151.016 166.447 151.026 166.914C151.026 167.334 150.909 167.712 150.676 168.048C150.442 168.384 150.111 168.65 149.682 168.846C149.262 169.033 148.776 169.126 148.226 169.126Z" fill="#8F8FA3"/>
<rect opacity="0.2" x="70.75" y="30.75" width="76.5" height="76.5" rx="38.25" fill="white" stroke="#FFC91B" stroke-width="1.5"/>
<path d="M109 80.6667L120.667 69L125.667 74L114 85.6667L109 80.6667Z" stroke="#FFC91B" stroke-width="3" stroke-linecap="round" stroke-linejoin="round"/>
<path d="M119 70.6667L116.5 58.1667L92.3333 52.3334L98.1666 76.5L110.667 79L119 70.6667Z" stroke="#FFC91B" stroke-width="3" stroke-linecap="round" stroke-linejoin="round"/>
<path d="M92.3333 52.3334L104.977 64.9767" stroke="#FFC91B" stroke-width="3" stroke-linecap="round" stroke-linejoin="round"/>
<path d="M107.333 70.6667C109.174 70.6667 110.667 69.1743 110.667 67.3333C110.667 65.4924 109.174 64 107.333 64C105.492 64 104 65.4924 104 67.3333C104 69.1743 105.492 70.6667 107.333 70.6667Z" stroke="#FFC91B" stroke-width="3" stroke-linecap="round" stroke-linejoin="round"/>
</svg>
