<svg width="218" height="205" viewBox="0 0 218 205" fill="none" xmlns="http://www.w3.org/2000/svg">
<rect opacity="0.3" x="0.75" y="0.75" width="216.5" height="203.5" rx="4.25" fill="white" stroke="#1089FF" stroke-width="1.5"/>
<path d="M46.6858 132.04C48.1524 132.04 49.4391 132.327 50.5458 132.9C51.6658 133.473 52.5258 134.293 53.1258 135.36C53.7391 136.413 54.0458 137.64 54.0458 139.04C54.0458 140.44 53.7391 141.667 53.1258 142.72C52.5258 143.76 51.6658 144.567 50.5458 145.14C49.4391 145.713 48.1524 146 46.6858 146H41.8058V132.04H46.6858ZM46.5858 143.62C48.0524 143.62 49.1858 143.22 49.9858 142.42C50.7858 141.62 51.1858 140.493 51.1858 139.04C51.1858 137.587 50.7858 136.453 49.9858 135.64C49.1858 134.813 48.0524 134.4 46.5858 134.4H44.6058V143.62H46.5858ZM66.4417 140.22C66.4417 140.62 66.4151 140.98 66.3617 141.3H58.2617C58.3284 142.1 58.6084 142.727 59.1017 143.18C59.5951 143.633 60.2017 143.86 60.9217 143.86C61.9617 143.86 62.7017 143.413 63.1417 142.52H66.1617C65.8417 143.587 65.2284 144.467 64.3217 145.16C63.4151 145.84 62.3017 146.18 60.9817 146.18C59.9151 146.18 58.9551 145.947 58.1017 145.48C57.2617 145 56.6017 144.327 56.1217 143.46C55.6551 142.593 55.4217 141.593 55.4217 140.46C55.4217 139.313 55.6551 138.307 56.1217 137.44C56.5884 136.573 57.2417 135.907 58.0817 135.44C58.9217 134.973 59.8884 134.74 60.9817 134.74C62.0351 134.74 62.9751 134.967 63.8017 135.42C64.6417 135.873 65.2884 136.52 65.7417 137.36C66.2084 138.187 66.4417 139.14 66.4417 140.22ZM63.5417 139.42C63.5284 138.7 63.2684 138.127 62.7617 137.7C62.2551 137.26 61.6351 137.04 60.9017 137.04C60.2084 137.04 59.6217 137.253 59.1417 137.68C58.6751 138.093 58.3884 138.673 58.2817 139.42H63.5417ZM73.1055 143.42L75.9055 134.92H78.8855L74.7855 146H71.3855L67.3055 134.92H70.3055L73.1055 143.42ZM90.7581 140.22C90.7581 140.62 90.7315 140.98 90.6781 141.3H82.5781C82.6448 142.1 82.9248 142.727 83.4181 143.18C83.9115 143.633 84.5181 143.86 85.2381 143.86C86.2781 143.86 87.0181 143.413 87.4581 142.52H90.4781C90.1581 143.587 89.5448 144.467 88.6381 145.16C87.7315 145.84 86.6181 146.18 85.2981 146.18C84.2315 146.18 83.2715 145.947 82.4181 145.48C81.5781 145 80.9181 144.327 80.4381 143.46C79.9715 142.593 79.7381 141.593 79.7381 140.46C79.7381 139.313 79.9715 138.307 80.4381 137.44C80.9048 136.573 81.5581 135.907 82.3981 135.44C83.2381 134.973 84.2048 134.74 85.2981 134.74C86.3515 134.74 87.2915 134.967 88.1181 135.42C88.9581 135.873 89.6048 136.52 90.0581 137.36C90.5248 138.187 90.7581 139.14 90.7581 140.22ZM87.8581 139.42C87.8448 138.7 87.5848 138.127 87.0781 137.7C86.5715 137.26 85.9515 137.04 85.2181 137.04C84.5248 137.04 83.9381 137.253 83.4581 137.68C82.9915 138.093 82.7048 138.673 82.5981 139.42H87.8581ZM95.6019 131.2V146H92.8019V131.2H95.6019ZM103.288 146.18C102.222 146.18 101.262 145.947 100.408 145.48C99.5549 145 98.8816 144.327 98.3883 143.46C97.9083 142.593 97.6683 141.593 97.6683 140.46C97.6683 139.327 97.9149 138.327 98.4083 137.46C98.9149 136.593 99.6016 135.927 100.468 135.46C101.335 134.98 102.302 134.74 103.368 134.74C104.435 134.74 105.402 134.98 106.268 135.46C107.135 135.927 107.815 136.593 108.308 137.46C108.815 138.327 109.068 139.327 109.068 140.46C109.068 141.593 108.808 142.593 108.288 143.46C107.782 144.327 107.088 145 106.208 145.48C105.342 145.947 104.368 146.18 103.288 146.18ZM103.288 143.74C103.795 143.74 104.268 143.62 104.708 143.38C105.162 143.127 105.522 142.753 105.788 142.26C106.055 141.767 106.188 141.167 106.188 140.46C106.188 139.407 105.908 138.6 105.348 138.04C104.802 137.467 104.128 137.18 103.328 137.18C102.528 137.18 101.855 137.467 101.308 138.04C100.775 138.6 100.508 139.407 100.508 140.46C100.508 141.513 100.768 142.327 101.288 142.9C101.822 143.46 102.488 143.74 103.288 143.74ZM113.922 136.52C114.282 136.013 114.776 135.593 115.402 135.26C116.042 134.913 116.769 134.74 117.582 134.74C118.529 134.74 119.382 134.973 120.142 135.44C120.916 135.907 121.522 136.573 121.962 137.44C122.416 138.293 122.642 139.287 122.642 140.42C122.642 141.553 122.416 142.56 121.962 143.44C121.522 144.307 120.916 144.98 120.142 145.46C119.382 145.94 118.529 146.18 117.582 146.18C116.769 146.18 116.049 146.013 115.422 145.68C114.809 145.347 114.309 144.927 113.922 144.42V151.28H111.122V134.92H113.922V136.52ZM119.782 140.42C119.782 139.753 119.642 139.18 119.362 138.7C119.096 138.207 118.736 137.833 118.282 137.58C117.842 137.327 117.362 137.2 116.842 137.2C116.336 137.2 115.856 137.333 115.402 137.6C114.962 137.853 114.602 138.227 114.322 138.72C114.056 139.213 113.922 139.793 113.922 140.46C113.922 141.127 114.056 141.707 114.322 142.2C114.602 142.693 114.962 143.073 115.402 143.34C115.856 143.593 116.336 143.72 116.842 143.72C117.362 143.72 117.842 143.587 118.282 143.32C118.736 143.053 119.096 142.673 119.362 142.18C119.642 141.687 119.782 141.1 119.782 140.42ZM138.437 134.76C139.797 134.76 140.89 135.18 141.717 136.02C142.557 136.847 142.977 138.007 142.977 139.5V146H140.177V139.88C140.177 139.013 139.957 138.353 139.517 137.9C139.077 137.433 138.477 137.2 137.717 137.2C136.957 137.2 136.35 137.433 135.897 137.9C135.457 138.353 135.237 139.013 135.237 139.88V146H132.437V139.88C132.437 139.013 132.217 138.353 131.777 137.9C131.337 137.433 130.737 137.2 129.977 137.2C129.204 137.2 128.59 137.433 128.137 137.9C127.697 138.353 127.477 139.013 127.477 139.88V146H124.677V134.92H127.477V136.26C127.837 135.793 128.297 135.427 128.857 135.16C129.43 134.893 130.057 134.76 130.737 134.76C131.604 134.76 132.377 134.947 133.057 135.32C133.737 135.68 134.264 136.2 134.637 136.88C134.997 136.24 135.517 135.727 136.197 135.34C136.89 134.953 137.637 134.76 138.437 134.76ZM155.934 140.22C155.934 140.62 155.907 140.98 155.854 141.3H147.754C147.821 142.1 148.101 142.727 148.594 143.18C149.087 143.633 149.694 143.86 150.414 143.86C151.454 143.86 152.194 143.413 152.634 142.52H155.654C155.334 143.587 154.721 144.467 153.814 145.16C152.907 145.84 151.794 146.18 150.474 146.18C149.407 146.18 148.447 145.947 147.594 145.48C146.754 145 146.094 144.327 145.614 143.46C145.147 142.593 144.914 141.593 144.914 140.46C144.914 139.313 145.147 138.307 145.614 137.44C146.081 136.573 146.734 135.907 147.574 135.44C148.414 134.973 149.381 134.74 150.474 134.74C151.527 134.74 152.467 134.967 153.294 135.42C154.134 135.873 154.781 136.52 155.234 137.36C155.701 138.187 155.934 139.14 155.934 140.22ZM153.034 139.42C153.021 138.7 152.761 138.127 152.254 137.7C151.747 137.26 151.127 137.04 150.394 137.04C149.701 137.04 149.114 137.253 148.634 137.68C148.167 138.093 147.881 138.673 147.774 139.42H153.034ZM164.118 134.76C165.438 134.76 166.504 135.18 167.318 136.02C168.131 136.847 168.538 138.007 168.538 139.5V146H165.738V139.88C165.738 139 165.518 138.327 165.078 137.86C164.638 137.38 164.038 137.14 163.278 137.14C162.504 137.14 161.891 137.38 161.438 137.86C160.998 138.327 160.778 139 160.778 139.88V146H157.978V134.92H160.778V136.3C161.151 135.82 161.624 135.447 162.198 135.18C162.784 134.9 163.424 134.76 164.118 134.76ZM174.46 137.22V142.58C174.46 142.953 174.547 143.227 174.72 143.4C174.907 143.56 175.214 143.64 175.64 143.64H176.94V146H175.18C172.82 146 171.64 144.853 171.64 142.56V137.22H170.32V134.92H171.64V132.18H174.46V134.92H176.94V137.22H174.46Z" fill="#202029"/>
<path d="M69.8709 160.04V158.878H72.5029V169H71.2149V160.04H69.8709ZM80.9212 159.872L77.0292 169H75.7412L79.6892 159.998H74.2852V158.906H80.9212V159.872ZM86.8278 169L83.8178 165.612V169H82.5438V158.64H83.8178V164.73L86.7718 161.328H88.5498L84.9378 165.15L88.5638 169H86.8278ZM93.0053 164.114C93.0053 163.162 93.22 162.308 93.6493 161.552C94.0787 160.787 94.662 160.189 95.3993 159.76C96.146 159.331 96.972 159.116 97.8773 159.116C98.9413 159.116 99.87 159.373 100.663 159.886C101.457 160.399 102.035 161.127 102.399 162.07H100.873C100.603 161.482 100.211 161.029 99.6973 160.712C99.1933 160.395 98.5867 160.236 97.8773 160.236C97.196 160.236 96.5847 160.395 96.0433 160.712C95.502 161.029 95.0773 161.482 94.7693 162.07C94.4613 162.649 94.3073 163.33 94.3073 164.114C94.3073 164.889 94.4613 165.57 94.7693 166.158C95.0773 166.737 95.502 167.185 96.0433 167.502C96.5847 167.819 97.196 167.978 97.8773 167.978C98.5867 167.978 99.1933 167.824 99.6973 167.516C100.211 167.199 100.603 166.746 100.873 166.158H102.399C102.035 167.091 101.457 167.815 100.663 168.328C99.87 168.832 98.9413 169.084 97.8773 169.084C96.972 169.084 96.146 168.874 95.3993 168.454C94.662 168.025 94.0787 167.432 93.6493 166.676C93.22 165.92 93.0053 165.066 93.0053 164.114ZM107.642 169.126C106.923 169.126 106.27 168.963 105.682 168.636C105.103 168.309 104.646 167.847 104.31 167.25C103.983 166.643 103.82 165.943 103.82 165.15C103.82 164.366 103.988 163.675 104.324 163.078C104.669 162.471 105.136 162.009 105.724 161.692C106.312 161.365 106.97 161.202 107.698 161.202C108.426 161.202 109.084 161.365 109.672 161.692C110.26 162.009 110.722 162.467 111.058 163.064C111.403 163.661 111.576 164.357 111.576 165.15C111.576 165.943 111.398 166.643 111.044 167.25C110.698 167.847 110.227 168.309 109.63 168.636C109.032 168.963 108.37 169.126 107.642 169.126ZM107.642 168.006C108.099 168.006 108.528 167.899 108.93 167.684C109.331 167.469 109.653 167.147 109.896 166.718C110.148 166.289 110.274 165.766 110.274 165.15C110.274 164.534 110.152 164.011 109.91 163.582C109.667 163.153 109.35 162.835 108.958 162.63C108.566 162.415 108.141 162.308 107.684 162.308C107.217 162.308 106.788 162.415 106.396 162.63C106.013 162.835 105.705 163.153 105.472 163.582C105.238 164.011 105.122 164.534 105.122 165.15C105.122 165.775 105.234 166.303 105.458 166.732C105.691 167.161 105.999 167.483 106.382 167.698C106.764 167.903 107.184 168.006 107.642 168.006ZM120.055 161.328V169H118.781V167.866C118.538 168.258 118.198 168.566 117.759 168.79C117.33 169.005 116.854 169.112 116.331 169.112C115.734 169.112 115.197 168.991 114.721 168.748C114.245 168.496 113.867 168.123 113.587 167.628C113.316 167.133 113.181 166.531 113.181 165.822V161.328H114.441V165.654C114.441 166.41 114.632 166.993 115.015 167.404C115.398 167.805 115.92 168.006 116.583 168.006C117.264 168.006 117.801 167.796 118.193 167.376C118.585 166.956 118.781 166.345 118.781 165.542V161.328H120.055ZM123.48 162.574C123.704 162.135 124.021 161.795 124.432 161.552C124.852 161.309 125.361 161.188 125.958 161.188V162.504H125.622C124.194 162.504 123.48 163.279 123.48 164.828V169H122.206V161.328H123.48V162.574ZM130.145 169.126C129.557 169.126 129.029 169.028 128.563 168.832C128.096 168.627 127.727 168.347 127.457 167.992C127.186 167.628 127.037 167.213 127.009 166.746H128.325C128.362 167.129 128.539 167.441 128.857 167.684C129.183 167.927 129.608 168.048 130.131 168.048C130.616 168.048 130.999 167.941 131.279 167.726C131.559 167.511 131.699 167.241 131.699 166.914C131.699 166.578 131.549 166.331 131.251 166.172C130.952 166.004 130.49 165.841 129.865 165.682C129.295 165.533 128.829 165.383 128.465 165.234C128.11 165.075 127.802 164.847 127.541 164.548C127.289 164.24 127.163 163.839 127.163 163.344C127.163 162.952 127.279 162.593 127.513 162.266C127.746 161.939 128.077 161.683 128.507 161.496C128.936 161.3 129.426 161.202 129.977 161.202C130.826 161.202 131.512 161.417 132.035 161.846C132.557 162.275 132.837 162.863 132.875 163.61H131.601C131.573 163.209 131.409 162.887 131.111 162.644C130.821 162.401 130.429 162.28 129.935 162.28C129.477 162.28 129.113 162.378 128.843 162.574C128.572 162.77 128.437 163.027 128.437 163.344C128.437 163.596 128.516 163.806 128.675 163.974C128.843 164.133 129.048 164.263 129.291 164.366C129.543 164.459 129.888 164.567 130.327 164.688C130.877 164.837 131.325 164.987 131.671 165.136C132.016 165.276 132.31 165.491 132.553 165.78C132.805 166.069 132.935 166.447 132.945 166.914C132.945 167.334 132.828 167.712 132.595 168.048C132.361 168.384 132.03 168.65 131.601 168.846C131.181 169.033 130.695 169.126 130.145 169.126ZM141.743 164.87C141.743 165.113 141.729 165.369 141.701 165.64H135.569C135.616 166.396 135.872 166.989 136.339 167.418C136.815 167.838 137.389 168.048 138.061 168.048C138.612 168.048 139.069 167.922 139.433 167.67C139.806 167.409 140.068 167.063 140.217 166.634H141.589C141.384 167.371 140.973 167.973 140.357 168.44C139.741 168.897 138.976 169.126 138.061 169.126C137.333 169.126 136.68 168.963 136.101 168.636C135.532 168.309 135.084 167.847 134.757 167.25C134.43 166.643 134.267 165.943 134.267 165.15C134.267 164.357 134.426 163.661 134.743 163.064C135.06 162.467 135.504 162.009 136.073 161.692C136.652 161.365 137.314 161.202 138.061 161.202C138.789 161.202 139.433 161.361 139.993 161.678C140.553 161.995 140.982 162.434 141.281 162.994C141.589 163.545 141.743 164.17 141.743 164.87ZM140.427 164.604C140.427 164.119 140.32 163.703 140.105 163.358C139.89 163.003 139.596 162.737 139.223 162.56C138.859 162.373 138.453 162.28 138.005 162.28C137.361 162.28 136.81 162.485 136.353 162.896C135.905 163.307 135.648 163.876 135.583 164.604H140.427ZM146.141 169.126C145.553 169.126 145.025 169.028 144.559 168.832C144.092 168.627 143.723 168.347 143.453 167.992C143.182 167.628 143.033 167.213 143.005 166.746H144.321C144.358 167.129 144.535 167.441 144.853 167.684C145.179 167.927 145.604 168.048 146.127 168.048C146.612 168.048 146.995 167.941 147.275 167.726C147.555 167.511 147.695 167.241 147.695 166.914C147.695 166.578 147.545 166.331 147.247 166.172C146.948 166.004 146.486 165.841 145.861 165.682C145.291 165.533 144.825 165.383 144.461 165.234C144.106 165.075 143.798 164.847 143.537 164.548C143.285 164.24 143.159 163.839 143.159 163.344C143.159 162.952 143.275 162.593 143.509 162.266C143.742 161.939 144.073 161.683 144.503 161.496C144.932 161.3 145.422 161.202 145.973 161.202C146.822 161.202 147.508 161.417 148.031 161.846C148.553 162.275 148.833 162.863 148.871 163.61H147.597C147.569 163.209 147.405 162.887 147.107 162.644C146.817 162.401 146.425 162.28 145.931 162.28C145.473 162.28 145.109 162.378 144.839 162.574C144.568 162.77 144.433 163.027 144.433 163.344C144.433 163.596 144.512 163.806 144.671 163.974C144.839 164.133 145.044 164.263 145.287 164.366C145.539 164.459 145.884 164.567 146.323 164.688C146.873 164.837 147.321 164.987 147.667 165.136C148.012 165.276 148.306 165.491 148.549 165.78C148.801 166.069 148.931 166.447 148.941 166.914C148.941 167.334 148.824 167.712 148.591 168.048C148.357 168.384 148.026 168.65 147.597 168.846C147.177 169.033 146.691 169.126 146.141 169.126Z" fill="#8F8FA3"/>
<rect x="70" y="30" width="78" height="78" rx="39" fill="#1089FF"/>
<path d="M122.333 54H95.6666C93.8256 54 92.3333 55.4924 92.3333 57.3333V74C92.3333 75.8409 93.8256 77.3333 95.6666 77.3333H122.333C124.174 77.3333 125.667 75.8409 125.667 74V57.3333C125.667 55.4924 124.174 54 122.333 54Z" stroke="white" stroke-width="3" stroke-linecap="round" stroke-linejoin="round"/>
<path d="M102.333 84H115.667" stroke="white" stroke-width="3" stroke-linecap="round" stroke-linejoin="round"/>
<path d="M109 77.3334V84" stroke="white" stroke-width="3" stroke-linecap="round" stroke-linejoin="round"/>
</svg>
