<svg width="156" height="39" viewBox="0 0 156 39" fill="none" xmlns="http://www.w3.org/2000/svg">
<path d="M40.713 12.9182C41.1936 12.7388 41.5148 12.2597 41.5148 11.7224C41.5147 11.1851 41.1933 10.7063 40.7127 10.527L21.3779 3.31767C21.1188 3.22101 20.8361 3.22073 20.5769 3.31687L1.22781 10.4879C0.746733 10.6661 0.424428 11.1444 0.423253 11.6817C0.422078 12.2189 0.74239 12.6986 1.22271 12.8791L8.88191 15.7566L8.8737 24.0305C8.87235 25.3961 10.2233 26.5522 12.889 27.4668C15.2125 28.2639 18.0761 28.7045 20.9522 28.7074C23.8283 28.7103 26.6927 28.2753 29.0179 27.4828C31.6854 26.5735 33.0387 25.4201 33.04 24.0545L33.0482 15.7806L36.2129 14.5988L36.2015 26.0637C34.7942 26.5864 33.7818 28 33.7802 29.6595C33.7786 31.3189 34.7881 32.7346 36.1944 33.2601C37.3981 33.2613 36.1944 33.2601 38.6021 33.2625C40.0094 32.7398 41.0217 31.3262 41.0234 29.6667C41.025 28.0073 40.0155 26.5916 38.6092 26.0661L38.6215 13.6993L40.713 12.9182ZM37.4004 30.942C36.7311 30.9413 36.1871 30.367 36.1878 29.6618C36.1885 28.9566 36.7336 28.3834 37.403 28.384C38.0723 28.3847 38.6163 28.959 38.6156 29.6642C38.6149 30.3694 38.0698 30.9426 37.4004 30.942ZM20.9748 5.85837L36.7049 11.7237L20.9632 17.6022L5.23312 11.6924L20.9748 5.85837ZM30.6324 23.8609C30.4014 24.1057 29.5748 24.6918 27.71 25.2504C25.7206 25.8461 23.3214 26.173 20.9547 26.1706C18.5879 26.1683 16.1895 25.8367 14.2012 25.237C12.3374 24.6747 11.512 24.0871 11.2815 23.8417L11.2886 16.6608L20.5574 20.1431C20.6877 20.1921 20.8241 20.2166 20.9605 20.2168C21.0969 20.2169 21.2333 20.1926 21.3638 20.1439L30.6394 16.68L30.6324 23.8609Z" fill="#1089FF"/>
<path d="M50.9003 27.2746C50.411 27.2741 50.0231 27.1387 49.7365 26.8685C49.4668 26.5983 49.3322 26.2185 49.3327 25.7293L49.3473 10.9749C49.3478 10.4856 49.4832 10.1061 49.7534 9.83644C50.0405 9.56678 50.4287 9.43219 50.9179 9.43267L60.054 9.44173C60.5433 9.44222 60.9228 9.55226 61.1925 9.77186C61.4623 9.99146 61.5969 10.3037 61.5965 10.7086C61.5961 11.1304 61.4608 11.4593 61.1906 11.6952C60.9205 11.9143 60.5407 12.0236 60.0515 12.0231L52.5351 12.0157L52.5302 16.9254L59.5404 16.9323C60.0297 16.9328 60.4092 17.0428 60.679 17.2624C60.9487 17.482 61.0833 17.8027 61.0829 18.2245C61.0825 18.6295 60.9472 18.9414 60.6771 19.1605C60.4069 19.3796 60.0272 19.4889 59.5379 19.4884L52.5277 19.4814L52.5225 24.6948L60.0389 24.7023C60.5282 24.7027 60.9077 24.8212 61.1774 25.0577C61.4471 25.2773 61.5818 25.598 61.5813 26.0198C61.5809 26.4247 61.4457 26.7367 61.1755 26.9558C60.9053 27.1748 60.5256 27.2841 60.0363 27.2836L50.9003 27.2746ZM73.5398 9.32857C74.0122 9.32904 74.4001 9.4644 74.7035 9.73465C75.007 10.0049 75.1584 10.3594 75.158 10.798L75.143 25.932C75.1425 26.3876 74.9988 26.7502 74.7117 27.0198C74.4246 27.2895 74.0449 27.4241 73.5724 27.4236C73.1 27.4231 72.7206 27.2878 72.434 27.0176C72.1474 26.7473 72.0044 26.3844 72.0048 25.9289L72.0055 25.2962C71.6336 25.9876 71.0932 26.5269 70.3842 26.9143C69.6921 27.3017 68.8989 27.4949 68.0047 27.494C66.9418 27.493 65.9888 27.2221 65.1457 26.6813C64.3195 26.1406 63.6707 25.3807 63.1993 24.4017C62.7447 23.4058 62.5181 22.2667 62.5194 20.9845C62.5206 19.7022 62.7495 18.5805 63.206 17.6192C63.6794 16.658 64.3297 15.9163 65.1569 15.3941C65.9841 14.8719 66.9377 14.6113 68.0175 14.6124C68.9117 14.6133 69.7045 14.7997 70.3958 15.1715C71.0872 15.5434 71.6181 16.067 71.9887 16.7422L71.9946 10.7443C71.995 10.3225 72.1303 9.98517 72.4005 9.73236C72.6876 9.4627 73.0674 9.3281 73.5398 9.32857ZM68.8423 25.04C69.8546 25.041 70.631 24.6959 71.1716 24.0047C71.7291 23.3135 72.0084 22.3268 72.0097 21.0445C72.011 19.7623 71.7336 18.7834 71.1775 18.108C70.6382 17.4157 69.8709 17.0691 68.8755 17.0681C67.8632 17.0671 67.0783 17.4038 66.5209 18.0781C65.9634 18.7524 65.6841 19.7222 65.6828 20.9876C65.6816 22.2699 65.9589 23.2656 66.515 23.9748C67.0711 24.6839 67.8468 25.039 68.8423 25.04ZM87.4179 14.6823C87.9072 14.6827 88.2951 14.8181 88.5817 15.0883C88.8682 15.3586 89.0113 15.7215 89.0108 16.177L89.0011 25.9964C89.0006 26.435 88.8484 26.7892 88.5445 27.0588C88.2574 27.3285 87.8777 27.4631 87.4052 27.4626C86.9497 27.4622 86.5871 27.3353 86.3174 27.0819C86.0477 26.8286 85.9131 26.4826 85.9135 26.0439L85.9141 25.4112C85.5254 26.0857 85.0019 26.6082 84.3435 26.9788C83.6851 27.3324 82.9426 27.5088 82.1159 27.508C79.079 27.505 77.5622 25.7994 77.5656 22.3913L77.5717 16.1656C77.5722 15.7101 77.716 15.3475 78.0031 15.0778C78.2901 14.8082 78.6699 14.6736 79.1423 14.6741C79.6316 14.6745 80.0195 14.8099 80.3061 15.0801C80.5926 15.3504 80.7357 15.7132 80.7352 16.1688L80.729 22.4198C80.7281 23.2971 80.9046 23.9469 81.2585 24.369C81.6124 24.7911 82.169 25.0026 82.9282 25.0034C83.8055 25.0042 84.506 24.7181 85.0296 24.145C85.5701 23.555 85.8408 22.7792 85.8418 21.8175L85.8474 16.1739C85.8478 15.7183 85.9916 15.3557 86.2787 15.0861C86.5658 14.8164 86.9455 14.6818 87.4179 14.6823ZM102.023 14.6967C102.495 14.6972 102.875 14.8326 103.161 15.1028C103.448 15.373 103.591 15.7359 103.591 16.1915L103.581 26.188C103.579 28.1282 103.037 29.5956 101.957 30.5899C100.876 31.5843 99.281 32.0804 97.172 32.0783C95.333 32.0765 93.798 31.7291 92.567 31.0361C91.9431 30.6643 91.6315 30.2169 91.632 29.6939C91.6324 29.3227 91.717 29.0276 91.8859 28.8084C92.0717 28.5892 92.3081 28.4798 92.5949 28.4801C92.7467 28.4802 92.9323 28.5142 93.1515 28.5819C93.3708 28.6665 93.5985 28.7595 93.8346 28.8609C94.4417 29.1146 94.9814 29.3092 95.4537 29.4446C95.9428 29.5801 96.4995 29.6481 97.1238 29.6487C99.334 29.6509 100.44 28.5722 100.442 26.4126L100.444 24.793C100.072 25.4843 99.5316 26.0237 98.8226 26.411C98.1136 26.7815 97.3036 26.9663 96.3925 26.9654C95.3127 26.9643 94.3513 26.7103 93.5082 26.2033C92.682 25.6795 92.0332 24.9533 91.5617 24.0249C91.0902 23.0965 90.8551 22.0249 90.8563 20.8101C90.8575 19.5954 91.0863 18.5242 91.5428 17.5967C92.0161 16.6524 92.6748 15.9276 93.5189 15.4222C94.363 14.9 95.325 14.6395 96.4048 14.6406C97.3158 14.6415 98.1255 14.8363 98.8337 15.225C99.542 15.5969 100.081 16.1289 100.452 16.821L100.452 16.163C100.453 15.7244 100.597 15.3702 100.884 15.1005C101.171 14.8309 101.551 14.6963 102.023 14.6967ZM97.2301 24.5114C98.2424 24.5124 99.0273 24.1842 99.5847 23.5267C100.159 22.8693 100.447 21.9669 100.448 20.8197C100.449 19.6555 100.163 18.7441 99.5901 18.0856C99.034 17.427 98.2498 17.0972 97.2375 17.0962C96.242 17.0952 95.4572 17.4235 94.8829 18.0809C94.3086 18.7383 94.0209 19.6491 94.0197 20.8133C94.0186 21.9606 94.3045 22.8635 94.8775 23.522C95.4505 24.1806 96.2347 24.5104 97.2301 24.5114ZM115.878 14.7105C116.367 14.711 116.755 14.8463 117.042 15.1166C117.328 15.3868 117.472 15.7497 117.471 16.2052L117.461 26.0246C117.461 26.4633 117.309 26.8174 117.005 27.0871C116.718 27.3567 116.338 27.4913 115.866 27.4909C115.41 27.4904 115.047 27.3635 114.778 27.1102C114.508 26.8568 114.373 26.5108 114.374 26.0722L114.374 25.4395C113.986 26.114 113.462 26.6365 112.804 27.007C112.145 27.3606 111.403 27.5371 110.576 27.5362C107.539 27.5332 106.022 25.8277 106.026 22.4196L106.032 16.1939C106.032 15.7383 106.176 15.3757 106.463 15.1061C106.75 14.8364 107.13 14.7018 107.603 14.7023C108.092 14.7028 108.48 14.8381 108.766 15.1084C109.053 15.3786 109.196 15.7415 109.195 16.197L109.189 22.448C109.188 23.3253 109.365 23.9751 109.719 24.3972C110.073 24.8194 110.629 25.0308 111.388 25.0316C112.266 25.0325 112.966 24.7463 113.49 24.1732C114.03 23.5832 114.301 22.8074 114.302 21.8457L114.308 16.2021C114.308 15.7465 114.452 15.3839 114.739 15.1143C115.026 14.8446 115.406 14.71 115.878 14.7105ZM125.371 14.6693C127.092 14.671 128.365 15.1025 129.191 15.9638C130.034 16.8082 130.455 18.0993 130.453 19.8371L130.447 26.0122C130.446 26.4677 130.311 26.8303 130.041 27.1C129.771 27.3528 129.399 27.479 128.927 27.4785C128.488 27.4781 128.126 27.3427 127.839 27.0725C127.569 26.8023 127.435 26.4479 127.435 26.0092L127.436 25.4524C127.148 26.1101 126.692 26.6243 126.068 26.9948C125.46 27.3654 124.751 27.5503 123.941 27.5495C123.114 27.5487 122.364 27.3792 121.689 27.0411C121.015 26.703 120.484 26.2385 120.096 25.6476C119.709 25.0567 119.515 24.3985 119.516 23.673C119.517 22.7619 119.746 22.0451 120.202 21.5226C120.675 21 121.434 20.6211 122.48 20.386C123.527 20.1508 124.969 20.0341 126.808 20.0359L127.441 20.0366L127.442 19.4545C127.442 18.6278 127.266 18.0287 126.912 17.6571C126.558 17.2687 125.985 17.0741 125.192 17.0733C124.702 17.0729 124.205 17.1483 123.698 17.2996C123.192 17.4341 122.593 17.636 121.901 17.9052C121.462 18.1241 121.141 18.2335 120.939 18.2333C120.635 18.233 120.382 18.1231 120.18 17.9035C119.995 17.684 119.902 17.3971 119.902 17.0428C119.903 16.756 119.97 16.5114 120.106 16.3091C120.258 16.0899 120.502 15.8877 120.84 15.7024C121.431 15.3824 122.131 15.1301 122.941 14.9453C123.768 14.7605 124.578 14.6685 125.371 14.6693ZM124.576 25.2724C125.42 25.2733 126.103 24.9956 126.627 24.4393C127.167 23.8662 127.438 23.1325 127.439 22.2383L127.439 21.7069L126.984 21.7064C125.853 21.7053 124.976 21.7551 124.352 21.8557C123.727 21.9563 123.28 22.133 123.01 22.3858C122.74 22.6386 122.604 22.9843 122.604 23.423C122.603 23.9629 122.789 24.4102 123.159 24.7649C123.547 25.1027 124.019 25.2719 124.576 25.2724ZM139.823 14.7342C140.262 14.7009 140.607 14.7941 140.86 15.0137C141.113 15.2332 141.239 15.5624 141.239 16.001C141.238 16.4566 141.128 16.7939 140.909 17.013C140.689 17.2321 140.293 17.3751 139.719 17.4421L138.96 17.5172C137.964 17.6175 137.23 17.9542 136.757 18.5274C136.301 19.1005 136.072 19.8174 136.071 20.6778L136.066 25.9924C136.066 26.4817 135.913 26.8612 135.609 27.1308C135.305 27.3836 134.926 27.5098 134.47 27.5093C134.015 27.5089 133.635 27.382 133.332 27.1286C133.045 26.8583 132.902 26.4786 132.903 25.9893L132.912 16.1952C132.913 15.7228 133.057 15.3602 133.344 15.1074C133.648 14.8547 134.019 14.7285 134.458 14.7289C134.896 14.7294 135.25 14.8562 135.52 15.1096C135.79 15.3461 135.924 15.6921 135.924 16.1476L135.923 17.1599C136.244 16.4179 136.717 15.8447 137.342 15.4404C137.983 15.0361 138.692 14.809 139.468 14.7592L139.823 14.7342ZM151.926 9.40632C152.399 9.40679 152.787 9.54215 153.09 9.8124C153.394 10.0826 153.545 10.4371 153.545 10.8758L153.53 26.0098C153.529 26.4653 153.385 26.8279 153.098 27.0976C152.811 27.3672 152.431 27.5018 151.959 27.5014C151.487 27.5009 151.107 27.3655 150.821 27.0953C150.534 26.8251 150.391 26.4622 150.391 26.0067L150.392 25.374C150.02 26.0653 149.48 26.6047 148.771 26.992C148.079 27.3794 147.285 27.5726 146.391 27.5718C145.328 27.5707 144.375 27.2998 143.532 26.7591C142.706 26.2184 142.057 25.4585 141.586 24.4795C141.131 23.4836 140.905 22.3445 140.906 21.0622C140.907 19.78 141.136 18.6582 141.593 17.697C142.066 16.7358 142.716 15.9941 143.543 15.4719C144.371 14.9496 145.324 14.6891 146.404 14.6902C147.298 14.691 148.091 14.8774 148.782 15.2493C149.474 15.6211 150.005 16.1447 150.375 16.8199L150.381 10.822C150.382 10.4002 150.517 10.0629 150.787 9.81011C151.074 9.54045 151.454 9.40585 151.926 9.40632ZM147.229 25.1177C148.241 25.1187 149.018 24.7736 149.558 24.0824C150.116 23.3912 150.395 22.4045 150.396 21.1223C150.398 19.84 150.12 18.8612 149.564 18.1857C149.025 17.4935 148.258 17.1468 147.262 17.1459C146.25 17.1448 145.465 17.4815 144.907 18.1558C144.35 18.8301 144.071 19.8 144.069 21.0654C144.068 22.3476 144.346 23.3433 144.902 24.0525C145.458 24.7617 146.233 25.1168 147.229 25.1177Z" fill="#202029"/>
</svg>
