<svg width="218" height="205" viewBox="0 0 218 205" fill="none" xmlns="http://www.w3.org/2000/svg">
<rect x="0.75" y="0.75" width="216.5" height="203.5" rx="4.25" fill="white" stroke="#EBEBF2" stroke-width="1.5"/>
<path d="M73.725 132.04V146H70.925V136.92L67.185 146H65.065L61.305 136.92V146H58.505V132.04H61.685L66.125 142.42L70.565 132.04H73.725ZM75.7733 140.42C75.7733 139.3 75.9933 138.307 76.4333 137.44C76.8866 136.573 77.4933 135.907 78.2533 135.44C79.0266 134.973 79.8866 134.74 80.8333 134.74C81.6599 134.74 82.3799 134.907 82.9933 135.24C83.6199 135.573 84.1199 135.993 84.4933 136.5V134.92H87.3133V146H84.4933V144.38C84.1333 144.9 83.6333 145.333 82.9933 145.68C82.3666 146.013 81.6399 146.18 80.8133 146.18C79.8799 146.18 79.0266 145.94 78.2533 145.46C77.4933 144.98 76.8866 144.307 76.4333 143.44C75.9933 142.56 75.7733 141.553 75.7733 140.42ZM84.4933 140.46C84.4933 139.78 84.3599 139.2 84.0933 138.72C83.8266 138.227 83.4666 137.853 83.0133 137.6C82.5599 137.333 82.0733 137.2 81.5533 137.2C81.0333 137.2 80.5533 137.327 80.1133 137.58C79.6733 137.833 79.3133 138.207 79.0333 138.7C78.7666 139.18 78.6333 139.753 78.6333 140.42C78.6333 141.087 78.7666 141.673 79.0333 142.18C79.3133 142.673 79.6733 143.053 80.1133 143.32C80.5666 143.587 81.0466 143.72 81.5533 143.72C82.0733 143.72 82.5599 143.593 83.0133 143.34C83.4666 143.073 83.8266 142.7 84.0933 142.22C84.3599 141.727 84.4933 141.14 84.4933 140.46ZM92.848 136.64C93.208 136.053 93.6746 135.593 94.248 135.26C94.8346 134.927 95.5013 134.76 96.248 134.76V137.7H95.508C94.628 137.7 93.9613 137.907 93.508 138.32C93.068 138.733 92.848 139.453 92.848 140.48V146H90.048V134.92H92.848V136.64ZM104.694 146L100.934 141.28V146H98.1339V131.2H100.934V139.62L104.654 134.92H108.294L103.414 140.48L108.334 146H104.694ZM120.114 140.22C120.114 140.62 120.087 140.98 120.034 141.3H111.934C112 142.1 112.28 142.727 112.774 143.18C113.267 143.633 113.874 143.86 114.594 143.86C115.634 143.86 116.374 143.413 116.814 142.52H119.834C119.514 143.587 118.9 144.467 117.994 145.16C117.087 145.84 115.974 146.18 114.654 146.18C113.587 146.18 112.627 145.947 111.774 145.48C110.934 145 110.274 144.327 109.794 143.46C109.327 142.593 109.094 141.593 109.094 140.46C109.094 139.313 109.327 138.307 109.794 137.44C110.26 136.573 110.914 135.907 111.754 135.44C112.594 134.973 113.56 134.74 114.654 134.74C115.707 134.74 116.647 134.967 117.474 135.42C118.314 135.873 118.96 136.52 119.414 137.36C119.88 138.187 120.114 139.14 120.114 140.22ZM117.214 139.42C117.2 138.7 116.94 138.127 116.434 137.7C115.927 137.26 115.307 137.04 114.574 137.04C113.88 137.04 113.294 137.253 112.814 137.68C112.347 138.093 112.06 138.673 111.954 139.42H117.214ZM125.417 137.22V142.58C125.417 142.953 125.504 143.227 125.677 143.4C125.864 143.56 126.171 143.64 126.597 143.64H127.897V146H126.137C123.777 146 122.597 144.853 122.597 142.56V137.22H121.277V134.92H122.597V132.18H125.417V134.92H127.897V137.22H125.417ZM131.331 133.6C130.838 133.6 130.425 133.447 130.091 133.14C129.771 132.82 129.611 132.427 129.611 131.96C129.611 131.493 129.771 131.107 130.091 130.8C130.425 130.48 130.838 130.32 131.331 130.32C131.825 130.32 132.231 130.48 132.551 130.8C132.885 131.107 133.051 131.493 133.051 131.96C133.051 132.427 132.885 132.82 132.551 133.14C132.231 133.447 131.825 133.6 131.331 133.6ZM132.711 134.92V146H129.911V134.92H132.711ZM141.618 134.76C142.938 134.76 144.004 135.18 144.818 136.02C145.631 136.847 146.038 138.007 146.038 139.5V146H143.238V139.88C143.238 139 143.018 138.327 142.578 137.86C142.138 137.38 141.538 137.14 140.778 137.14C140.004 137.14 139.391 137.38 138.938 137.86C138.498 138.327 138.278 139 138.278 139.88V146H135.478V134.92H138.278V136.3C138.651 135.82 139.124 135.447 139.698 135.18C140.284 134.9 140.924 134.76 141.618 134.76ZM153.04 134.74C153.867 134.74 154.594 134.907 155.22 135.24C155.847 135.56 156.34 135.98 156.7 136.5V134.92H159.52V146.08C159.52 147.107 159.314 148.02 158.9 148.82C158.487 149.633 157.867 150.273 157.04 150.74C156.214 151.22 155.214 151.46 154.04 151.46C152.467 151.46 151.174 151.093 150.16 150.36C149.16 149.627 148.594 148.627 148.46 147.36H151.24C151.387 147.867 151.7 148.267 152.18 148.56C152.674 148.867 153.267 149.02 153.96 149.02C154.774 149.02 155.434 148.773 155.94 148.28C156.447 147.8 156.7 147.067 156.7 146.08V144.36C156.34 144.88 155.84 145.313 155.2 145.66C154.574 146.007 153.854 146.18 153.04 146.18C152.107 146.18 151.254 145.94 150.48 145.46C149.707 144.98 149.094 144.307 148.64 143.44C148.2 142.56 147.98 141.553 147.98 140.42C147.98 139.3 148.2 138.307 148.64 137.44C149.094 136.573 149.7 135.907 150.46 135.44C151.234 134.973 152.094 134.74 153.04 134.74ZM156.7 140.46C156.7 139.78 156.567 139.2 156.3 138.72C156.034 138.227 155.674 137.853 155.22 137.6C154.767 137.333 154.28 137.2 153.76 137.2C153.24 137.2 152.76 137.327 152.32 137.58C151.88 137.833 151.52 138.207 151.24 138.7C150.974 139.18 150.84 139.753 150.84 140.42C150.84 141.087 150.974 141.673 151.24 142.18C151.52 142.673 151.88 143.053 152.32 143.32C152.774 143.587 153.254 143.72 153.76 143.72C154.28 143.72 154.767 143.593 155.22 143.34C155.674 143.073 156.034 142.7 156.3 142.22C156.567 141.727 156.7 141.14 156.7 140.46Z" fill="#202029"/>
<path d="M72.09 167.978C73.2753 167.026 74.204 166.247 74.876 165.64C75.548 165.024 76.1126 164.385 76.57 163.722C77.0366 163.05 77.27 162.392 77.27 161.748C77.27 161.141 77.1206 160.665 76.822 160.32C76.5326 159.965 76.0613 159.788 75.408 159.788C74.7733 159.788 74.2786 159.989 73.924 160.39C73.5786 160.782 73.392 161.309 73.364 161.972H72.132C72.1693 160.927 72.4866 160.119 73.084 159.55C73.6813 158.981 74.4513 158.696 75.394 158.696C76.3553 158.696 77.116 158.962 77.676 159.494C78.2453 160.026 78.53 160.759 78.53 161.692C78.53 162.467 78.2966 163.223 77.83 163.96C77.3726 164.688 76.85 165.332 76.262 165.892C75.674 166.443 74.9226 167.087 74.008 167.824H78.824V168.888H72.09V167.978ZM84.7907 169L81.7807 165.612V169H80.5067V158.64H81.7807V164.73L84.7347 161.328H86.5127L82.9007 165.15L86.5267 169H84.7907ZM90.9682 164.114C90.9682 163.162 91.1829 162.308 91.6122 161.552C92.0415 160.787 92.6249 160.189 93.3622 159.76C94.1089 159.331 94.9349 159.116 95.8402 159.116C96.9042 159.116 97.8329 159.373 98.6262 159.886C99.4195 160.399 99.9982 161.127 100.362 162.07H98.8362C98.5655 161.482 98.1735 161.029 97.6602 160.712C97.1562 160.395 96.5495 160.236 95.8402 160.236C95.1589 160.236 94.5475 160.395 94.0062 160.712C93.4649 161.029 93.0402 161.482 92.7322 162.07C92.4242 162.649 92.2702 163.33 92.2702 164.114C92.2702 164.889 92.4242 165.57 92.7322 166.158C93.0402 166.737 93.4649 167.185 94.0062 167.502C94.5475 167.819 95.1589 167.978 95.8402 167.978C96.5495 167.978 97.1562 167.824 97.6602 167.516C98.1735 167.199 98.5655 166.746 98.8362 166.158H100.362C99.9982 167.091 99.4195 167.815 98.6262 168.328C97.8329 168.832 96.9042 169.084 95.8402 169.084C94.9349 169.084 94.1089 168.874 93.3622 168.454C92.6249 168.025 92.0415 167.432 91.6122 166.676C91.1829 165.92 90.9682 165.066 90.9682 164.114ZM105.605 169.126C104.886 169.126 104.233 168.963 103.645 168.636C103.066 168.309 102.609 167.847 102.273 167.25C101.946 166.643 101.783 165.943 101.783 165.15C101.783 164.366 101.951 163.675 102.287 163.078C102.632 162.471 103.099 162.009 103.687 161.692C104.275 161.365 104.933 161.202 105.661 161.202C106.389 161.202 107.047 161.365 107.635 161.692C108.223 162.009 108.685 162.467 109.021 163.064C109.366 163.661 109.539 164.357 109.539 165.15C109.539 165.943 109.361 166.643 109.007 167.25C108.661 167.847 108.19 168.309 107.593 168.636C106.995 168.963 106.333 169.126 105.605 169.126ZM105.605 168.006C106.062 168.006 106.491 167.899 106.893 167.684C107.294 167.469 107.616 167.147 107.859 166.718C108.111 166.289 108.237 165.766 108.237 165.15C108.237 164.534 108.115 164.011 107.873 163.582C107.63 163.153 107.313 162.835 106.921 162.63C106.529 162.415 106.104 162.308 105.647 162.308C105.18 162.308 104.751 162.415 104.359 162.63C103.976 162.835 103.668 163.153 103.435 163.582C103.201 164.011 103.085 164.534 103.085 165.15C103.085 165.775 103.197 166.303 103.421 166.732C103.654 167.161 103.962 167.483 104.345 167.698C104.727 167.903 105.147 168.006 105.605 168.006ZM118.018 161.328V169H116.744V167.866C116.501 168.258 116.16 168.566 115.722 168.79C115.292 169.005 114.816 169.112 114.294 169.112C113.696 169.112 113.16 168.991 112.684 168.748C112.208 168.496 111.83 168.123 111.55 167.628C111.279 167.133 111.144 166.531 111.144 165.822V161.328H112.404V165.654C112.404 166.41 112.595 166.993 112.978 167.404C113.36 167.805 113.883 168.006 114.546 168.006C115.227 168.006 115.764 167.796 116.156 167.376C116.548 166.956 116.744 166.345 116.744 165.542V161.328H118.018ZM121.443 162.574C121.667 162.135 121.984 161.795 122.395 161.552C122.815 161.309 123.323 161.188 123.921 161.188V162.504H123.585C122.157 162.504 121.443 163.279 121.443 164.828V169H120.169V161.328H121.443V162.574ZM128.107 169.126C127.519 169.126 126.992 169.028 126.525 168.832C126.059 168.627 125.69 168.347 125.419 167.992C125.149 167.628 124.999 167.213 124.971 166.746H126.287C126.325 167.129 126.502 167.441 126.819 167.684C127.146 167.927 127.571 168.048 128.093 168.048C128.579 168.048 128.961 167.941 129.241 167.726C129.521 167.511 129.661 167.241 129.661 166.914C129.661 166.578 129.512 166.331 129.213 166.172C128.915 166.004 128.453 165.841 127.827 165.682C127.258 165.533 126.791 165.383 126.427 165.234C126.073 165.075 125.765 164.847 125.503 164.548C125.251 164.24 125.125 163.839 125.125 163.344C125.125 162.952 125.242 162.593 125.475 162.266C125.709 161.939 126.04 161.683 126.469 161.496C126.899 161.3 127.389 161.202 127.939 161.202C128.789 161.202 129.475 161.417 129.997 161.846C130.52 162.275 130.8 162.863 130.837 163.61H129.563C129.535 163.209 129.372 162.887 129.073 162.644C128.784 162.401 128.392 162.28 127.897 162.28C127.44 162.28 127.076 162.378 126.805 162.574C126.535 162.77 126.399 163.027 126.399 163.344C126.399 163.596 126.479 163.806 126.637 163.974C126.805 164.133 127.011 164.263 127.253 164.366C127.505 164.459 127.851 164.567 128.289 164.688C128.84 164.837 129.288 164.987 129.633 165.136C129.979 165.276 130.273 165.491 130.515 165.78C130.767 166.069 130.898 166.447 130.907 166.914C130.907 167.334 130.791 167.712 130.557 168.048C130.324 168.384 129.993 168.65 129.563 168.846C129.143 169.033 128.658 169.126 128.107 169.126ZM139.706 164.87C139.706 165.113 139.692 165.369 139.664 165.64H133.532C133.579 166.396 133.835 166.989 134.302 167.418C134.778 167.838 135.352 168.048 136.024 168.048C136.575 168.048 137.032 167.922 137.396 167.67C137.769 167.409 138.031 167.063 138.18 166.634H139.552C139.347 167.371 138.936 167.973 138.32 168.44C137.704 168.897 136.939 169.126 136.024 169.126C135.296 169.126 134.643 168.963 134.064 168.636C133.495 168.309 133.047 167.847 132.72 167.25C132.393 166.643 132.23 165.943 132.23 165.15C132.23 164.357 132.389 163.661 132.706 163.064C133.023 162.467 133.467 162.009 134.036 161.692C134.615 161.365 135.277 161.202 136.024 161.202C136.752 161.202 137.396 161.361 137.956 161.678C138.516 161.995 138.945 162.434 139.244 162.994C139.552 163.545 139.706 164.17 139.706 164.87ZM138.39 164.604C138.39 164.119 138.283 163.703 138.068 163.358C137.853 163.003 137.559 162.737 137.186 162.56C136.822 162.373 136.416 162.28 135.968 162.28C135.324 162.28 134.773 162.485 134.316 162.896C133.868 163.307 133.611 163.876 133.546 164.604H138.39ZM144.104 169.126C143.516 169.126 142.988 169.028 142.522 168.832C142.055 168.627 141.686 168.347 141.416 167.992C141.145 167.628 140.996 167.213 140.968 166.746H142.284C142.321 167.129 142.498 167.441 142.816 167.684C143.142 167.927 143.567 168.048 144.09 168.048C144.575 168.048 144.958 167.941 145.238 167.726C145.518 167.511 145.658 167.241 145.658 166.914C145.658 166.578 145.508 166.331 145.21 166.172C144.911 166.004 144.449 165.841 143.824 165.682C143.254 165.533 142.788 165.383 142.424 165.234C142.069 165.075 141.761 164.847 141.5 164.548C141.248 164.24 141.122 163.839 141.122 163.344C141.122 162.952 141.238 162.593 141.472 162.266C141.705 161.939 142.036 161.683 142.466 161.496C142.895 161.3 143.385 161.202 143.936 161.202C144.785 161.202 145.471 161.417 145.994 161.846C146.516 162.275 146.796 162.863 146.834 163.61H145.56C145.532 163.209 145.368 162.887 145.07 162.644C144.78 162.401 144.388 162.28 143.894 162.28C143.436 162.28 143.072 162.378 142.802 162.574C142.531 162.77 142.396 163.027 142.396 163.344C142.396 163.596 142.475 163.806 142.634 163.974C142.802 164.133 143.007 164.263 143.25 164.366C143.502 164.459 143.847 164.567 144.286 164.688C144.836 164.837 145.284 164.987 145.63 165.136C145.975 165.276 146.269 165.491 146.512 165.78C146.764 166.069 146.894 166.447 146.904 166.914C146.904 167.334 146.787 167.712 146.554 168.048C146.32 168.384 145.989 168.65 145.56 168.846C145.14 169.033 144.654 169.126 144.104 169.126Z" fill="#8F8FA3"/>
<rect opacity="0.2" x="70.75" y="30.75" width="76.5" height="76.5" rx="38.25" fill="white" stroke="#FF7A1A" stroke-width="1.5"/>
<path d="M124 75.6667V62.3334C123.999 61.7488 123.845 61.1747 123.553 60.6686C123.26 60.1626 122.84 59.7423 122.333 59.45L110.667 52.7834C110.16 52.4908 109.585 52.3368 109 52.3368C108.415 52.3368 107.84 52.4908 107.333 52.7834L95.6667 59.45C95.1604 59.7423 94.74 60.1626 94.4474 60.6686C94.1549 61.1747 94.0006 61.7488 94 62.3334V75.6667C94.0006 76.2513 94.1549 76.8254 94.4474 77.3314C94.74 77.8375 95.1604 78.2578 95.6667 78.55L107.333 85.2167C107.84 85.5093 108.415 85.6633 109 85.6633C109.585 85.6633 110.16 85.5093 110.667 85.2167L122.333 78.55C122.84 78.2578 123.26 77.8375 123.553 77.3314C123.845 76.8254 123.999 76.2513 124 75.6667Z" stroke="#FF7A1A" stroke-width="3" stroke-linecap="round" stroke-linejoin="round"/>
<path d="M94.45 60.6L109 69.0166L123.55 60.6" stroke="#FF7A1A" stroke-width="3" stroke-linecap="round" stroke-linejoin="round"/>
<path d="M109 85.8V69" stroke="#FF7A1A" stroke-width="3" stroke-linecap="round" stroke-linejoin="round"/>
</svg>
