<svg width="218" height="205" viewBox="0 0 218 205" fill="none" xmlns="http://www.w3.org/2000/svg">
<rect x="0.75" y="0.75" width="216.5" height="203.5" rx="4.25" fill="white" stroke="#EBEBF2" stroke-width="1.5"/>
<path d="M95.7465 132.04V146H92.9465V136.92L89.2065 146H87.0865L83.3265 136.92V146H80.5265V132.04H83.7065L88.1465 142.42L92.5865 132.04H95.7465ZM108.975 134.92V146H106.155V144.6C105.795 145.08 105.321 145.46 104.735 145.74C104.161 146.007 103.535 146.14 102.855 146.14C101.988 146.14 101.221 145.96 100.555 145.6C99.8881 145.227 99.3614 144.687 98.9748 143.98C98.6014 143.26 98.4148 142.407 98.4148 141.42V134.92H101.215V141.02C101.215 141.9 101.435 142.58 101.875 143.06C102.315 143.527 102.915 143.76 103.675 143.76C104.448 143.76 105.055 143.527 105.495 143.06C105.935 142.58 106.155 141.9 106.155 141.02V134.92H108.975ZM115.977 146.18C115.071 146.18 114.257 146.02 113.537 145.7C112.817 145.367 112.244 144.92 111.817 144.36C111.404 143.8 111.177 143.18 111.137 142.5H113.957C114.011 142.927 114.217 143.28 114.577 143.56C114.951 143.84 115.411 143.98 115.957 143.98C116.491 143.98 116.904 143.873 117.197 143.66C117.504 143.447 117.657 143.173 117.657 142.84C117.657 142.48 117.471 142.213 117.097 142.04C116.737 141.853 116.157 141.653 115.357 141.44C114.531 141.24 113.851 141.033 113.317 140.82C112.797 140.607 112.344 140.28 111.957 139.84C111.584 139.4 111.397 138.807 111.397 138.06C111.397 137.447 111.571 136.887 111.917 136.38C112.277 135.873 112.784 135.473 113.437 135.18C114.104 134.887 114.884 134.74 115.777 134.74C117.097 134.74 118.151 135.073 118.937 135.74C119.724 136.393 120.157 137.28 120.237 138.4H117.557C117.517 137.96 117.331 137.613 116.997 137.36C116.677 137.093 116.244 136.96 115.697 136.96C115.191 136.96 114.797 137.053 114.517 137.24C114.251 137.427 114.117 137.687 114.117 138.02C114.117 138.393 114.304 138.68 114.677 138.88C115.051 139.067 115.631 139.26 116.417 139.46C117.217 139.66 117.877 139.867 118.397 140.08C118.917 140.293 119.364 140.627 119.737 141.08C120.124 141.52 120.324 142.107 120.337 142.84C120.337 143.48 120.157 144.053 119.797 144.56C119.451 145.067 118.944 145.467 118.277 145.76C117.624 146.04 116.857 146.18 115.977 146.18ZM124.056 133.6C123.563 133.6 123.149 133.447 122.816 133.14C122.496 132.82 122.336 132.427 122.336 131.96C122.336 131.493 122.496 131.107 122.816 130.8C123.149 130.48 123.563 130.32 124.056 130.32C124.549 130.32 124.956 130.48 125.276 130.8C125.609 131.107 125.776 131.493 125.776 131.96C125.776 132.427 125.609 132.82 125.276 133.14C124.956 133.447 124.549 133.6 124.056 133.6ZM125.436 134.92V146H122.636V134.92H125.436ZM127.482 140.46C127.482 139.313 127.716 138.313 128.182 137.46C128.649 136.593 129.296 135.927 130.122 135.46C130.949 134.98 131.896 134.74 132.962 134.74C134.336 134.74 135.469 135.087 136.362 135.78C137.269 136.46 137.876 137.42 138.182 138.66H135.162C135.002 138.18 134.729 137.807 134.342 137.54C133.969 137.26 133.502 137.12 132.942 137.12C132.142 137.12 131.509 137.413 131.042 138C130.576 138.573 130.342 139.393 130.342 140.46C130.342 141.513 130.576 142.333 131.042 142.92C131.509 143.493 132.142 143.78 132.942 143.78C134.076 143.78 134.816 143.273 135.162 142.26H138.182C137.876 143.46 137.269 144.413 136.362 145.12C135.456 145.827 134.322 146.18 132.962 146.18C131.896 146.18 130.949 145.947 130.122 145.48C129.296 145 128.649 144.333 128.182 143.48C127.716 142.613 127.482 141.607 127.482 140.46Z" fill="#202029"/>
<path d="M66.962 167.978C68.1474 167.026 69.076 166.247 69.748 165.64C70.42 165.024 70.9847 164.385 71.442 163.722C71.9087 163.05 72.142 162.392 72.142 161.748C72.142 161.141 71.9927 160.665 71.694 160.32C71.4047 159.965 70.9334 159.788 70.28 159.788C69.6454 159.788 69.1507 159.989 68.796 160.39C68.4507 160.782 68.264 161.309 68.236 161.972H67.004C67.0414 160.927 67.3587 160.119 67.956 159.55C68.5534 158.981 69.3234 158.696 70.266 158.696C71.2274 158.696 71.988 158.962 72.548 159.494C73.1174 160.026 73.402 160.759 73.402 161.692C73.402 162.467 73.1687 163.223 72.702 163.96C72.2447 164.688 71.722 165.332 71.134 165.892C70.546 166.443 69.7947 167.087 68.88 167.824H73.696V168.888H66.962V167.978ZM76.8068 166.284C76.9001 166.816 77.1148 167.227 77.4508 167.516C77.7961 167.805 78.2581 167.95 78.8368 167.95C79.6114 167.95 80.1808 167.647 80.5448 167.04C80.9181 166.433 81.0954 165.411 81.0768 163.974C80.8808 164.394 80.5541 164.725 80.0968 164.968C79.6394 165.201 79.1308 165.318 78.5708 165.318C77.9454 165.318 77.3854 165.192 76.8908 164.94C76.4054 164.679 76.0228 164.301 75.7428 163.806C75.4628 163.311 75.3228 162.714 75.3228 162.014C75.3228 161.015 75.6121 160.213 76.1908 159.606C76.7694 158.99 77.5908 158.682 78.6548 158.682C79.9614 158.682 80.8761 159.107 81.3988 159.956C81.9308 160.805 82.1968 162.07 82.1968 163.75C82.1968 164.926 82.0894 165.897 81.8748 166.662C81.6694 167.427 81.3148 168.011 80.8108 168.412C80.3161 168.813 79.6348 169.014 78.7668 169.014C77.8148 169.014 77.0728 168.757 76.5408 168.244C76.0088 167.731 75.7054 167.077 75.6308 166.284H76.8068ZM78.7808 164.24C79.4061 164.24 79.9194 164.049 80.3208 163.666C80.7221 163.274 80.9228 162.747 80.9228 162.084C80.9228 161.384 80.7268 160.819 80.3348 160.39C79.9428 159.961 79.3921 159.746 78.6828 159.746C78.0294 159.746 77.5068 159.951 77.1148 160.362C76.7321 160.773 76.5408 161.314 76.5408 161.986C76.5408 162.667 76.7321 163.213 77.1148 163.624C77.4974 164.035 78.0528 164.24 78.7808 164.24ZM90.2171 159.872L86.3251 169H85.0371L88.9851 159.998H83.5811V158.906H90.2171V159.872ZM95.0961 164.114C95.0961 163.162 95.3108 162.308 95.7401 161.552C96.1695 160.787 96.7528 160.189 97.4901 159.76C98.2368 159.331 99.0628 159.116 99.9681 159.116C101.032 159.116 101.961 159.373 102.754 159.886C103.547 160.399 104.126 161.127 104.49 162.07H102.964C102.693 161.482 102.301 161.029 101.788 160.712C101.284 160.395 100.677 160.236 99.9681 160.236C99.2868 160.236 98.6755 160.395 98.1341 160.712C97.5928 161.029 97.1681 161.482 96.8601 162.07C96.5521 162.649 96.3981 163.33 96.3981 164.114C96.3981 164.889 96.5521 165.57 96.8601 166.158C97.1681 166.737 97.5928 167.185 98.1341 167.502C98.6755 167.819 99.2868 167.978 99.9681 167.978C100.677 167.978 101.284 167.824 101.788 167.516C102.301 167.199 102.693 166.746 102.964 166.158H104.49C104.126 167.091 103.547 167.815 102.754 168.328C101.961 168.832 101.032 169.084 99.9681 169.084C99.0628 169.084 98.2368 168.874 97.4901 168.454C96.7528 168.025 96.1695 167.432 95.7401 166.676C95.3108 165.92 95.0961 165.066 95.0961 164.114ZM109.733 169.126C109.014 169.126 108.361 168.963 107.773 168.636C107.194 168.309 106.737 167.847 106.401 167.25C106.074 166.643 105.911 165.943 105.911 165.15C105.911 164.366 106.079 163.675 106.415 163.078C106.76 162.471 107.227 162.009 107.815 161.692C108.403 161.365 109.061 161.202 109.789 161.202C110.517 161.202 111.175 161.365 111.763 161.692C112.351 162.009 112.813 162.467 113.149 163.064C113.494 163.661 113.667 164.357 113.667 165.15C113.667 165.943 113.489 166.643 113.135 167.25C112.789 167.847 112.318 168.309 111.721 168.636C111.123 168.963 110.461 169.126 109.733 169.126ZM109.733 168.006C110.19 168.006 110.619 167.899 111.021 167.684C111.422 167.469 111.744 167.147 111.987 166.718C112.239 166.289 112.365 165.766 112.365 165.15C112.365 164.534 112.243 164.011 112.001 163.582C111.758 163.153 111.441 162.835 111.049 162.63C110.657 162.415 110.232 162.308 109.775 162.308C109.308 162.308 108.879 162.415 108.487 162.63C108.104 162.835 107.796 163.153 107.563 163.582C107.329 164.011 107.213 164.534 107.213 165.15C107.213 165.775 107.325 166.303 107.549 166.732C107.782 167.161 108.09 167.483 108.473 167.698C108.855 167.903 109.275 168.006 109.733 168.006ZM122.146 161.328V169H120.872V167.866C120.629 168.258 120.288 168.566 119.85 168.79C119.42 169.005 118.944 169.112 118.422 169.112C117.824 169.112 117.288 168.991 116.812 168.748C116.336 168.496 115.958 168.123 115.678 167.628C115.407 167.133 115.272 166.531 115.272 165.822V161.328H116.532V165.654C116.532 166.41 116.723 166.993 117.106 167.404C117.488 167.805 118.011 168.006 118.674 168.006C119.355 168.006 119.892 167.796 120.284 167.376C120.676 166.956 120.872 166.345 120.872 165.542V161.328H122.146ZM125.571 162.574C125.795 162.135 126.112 161.795 126.523 161.552C126.943 161.309 127.451 161.188 128.049 161.188V162.504H127.713C126.285 162.504 125.571 163.279 125.571 164.828V169H124.297V161.328H125.571V162.574ZM132.235 169.126C131.647 169.126 131.12 169.028 130.653 168.832C130.187 168.627 129.818 168.347 129.547 167.992C129.277 167.628 129.127 167.213 129.099 166.746H130.415C130.453 167.129 130.63 167.441 130.947 167.684C131.274 167.927 131.699 168.048 132.221 168.048C132.707 168.048 133.089 167.941 133.369 167.726C133.649 167.511 133.789 167.241 133.789 166.914C133.789 166.578 133.64 166.331 133.341 166.172C133.043 166.004 132.581 165.841 131.955 165.682C131.386 165.533 130.919 165.383 130.555 165.234C130.201 165.075 129.893 164.847 129.631 164.548C129.379 164.24 129.253 163.839 129.253 163.344C129.253 162.952 129.37 162.593 129.603 162.266C129.837 161.939 130.168 161.683 130.597 161.496C131.027 161.3 131.517 161.202 132.067 161.202C132.917 161.202 133.603 161.417 134.125 161.846C134.648 162.275 134.928 162.863 134.965 163.61H133.691C133.663 163.209 133.5 162.887 133.201 162.644C132.912 162.401 132.52 162.28 132.025 162.28C131.568 162.28 131.204 162.378 130.933 162.574C130.663 162.77 130.527 163.027 130.527 163.344C130.527 163.596 130.607 163.806 130.765 163.974C130.933 164.133 131.139 164.263 131.381 164.366C131.633 164.459 131.979 164.567 132.417 164.688C132.968 164.837 133.416 164.987 133.761 165.136C134.107 165.276 134.401 165.491 134.643 165.78C134.895 166.069 135.026 166.447 135.035 166.914C135.035 167.334 134.919 167.712 134.685 168.048C134.452 168.384 134.121 168.65 133.691 168.846C133.271 169.033 132.786 169.126 132.235 169.126ZM143.834 164.87C143.834 165.113 143.82 165.369 143.792 165.64H137.66C137.707 166.396 137.963 166.989 138.43 167.418C138.906 167.838 139.48 168.048 140.152 168.048C140.703 168.048 141.16 167.922 141.524 167.67C141.897 167.409 142.159 167.063 142.308 166.634H143.68C143.475 167.371 143.064 167.973 142.448 168.44C141.832 168.897 141.067 169.126 140.152 169.126C139.424 169.126 138.771 168.963 138.192 168.636C137.623 168.309 137.175 167.847 136.848 167.25C136.521 166.643 136.358 165.943 136.358 165.15C136.358 164.357 136.517 163.661 136.834 163.064C137.151 162.467 137.595 162.009 138.164 161.692C138.743 161.365 139.405 161.202 140.152 161.202C140.88 161.202 141.524 161.361 142.084 161.678C142.644 161.995 143.073 162.434 143.372 162.994C143.68 163.545 143.834 164.17 143.834 164.87ZM142.518 164.604C142.518 164.119 142.411 163.703 142.196 163.358C141.981 163.003 141.687 162.737 141.314 162.56C140.95 162.373 140.544 162.28 140.096 162.28C139.452 162.28 138.901 162.485 138.444 162.896C137.996 163.307 137.739 163.876 137.674 164.604H142.518ZM148.232 169.126C147.644 169.126 147.116 169.028 146.65 168.832C146.183 168.627 145.814 168.347 145.544 167.992C145.273 167.628 145.124 167.213 145.096 166.746H146.412C146.449 167.129 146.626 167.441 146.944 167.684C147.27 167.927 147.695 168.048 148.218 168.048C148.703 168.048 149.086 167.941 149.366 167.726C149.646 167.511 149.786 167.241 149.786 166.914C149.786 166.578 149.636 166.331 149.338 166.172C149.039 166.004 148.577 165.841 147.952 165.682C147.382 165.533 146.916 165.383 146.552 165.234C146.197 165.075 145.889 164.847 145.628 164.548C145.376 164.24 145.25 163.839 145.25 163.344C145.25 162.952 145.366 162.593 145.6 162.266C145.833 161.939 146.164 161.683 146.594 161.496C147.023 161.3 147.513 161.202 148.064 161.202C148.913 161.202 149.599 161.417 150.122 161.846C150.644 162.275 150.924 162.863 150.962 163.61H149.688C149.66 163.209 149.496 162.887 149.198 162.644C148.908 162.401 148.516 162.28 148.022 162.28C147.564 162.28 147.2 162.378 146.93 162.574C146.659 162.77 146.524 163.027 146.524 163.344C146.524 163.596 146.603 163.806 146.762 163.974C146.93 164.133 147.135 164.263 147.378 164.366C147.63 164.459 147.975 164.567 148.414 164.688C148.964 164.837 149.412 164.987 149.758 165.136C150.103 165.276 150.397 165.491 150.64 165.78C150.892 166.069 151.022 166.447 151.032 166.914C151.032 167.334 150.915 167.712 150.682 168.048C150.448 168.384 150.117 168.65 149.688 168.846C149.268 169.033 148.782 169.126 148.232 169.126Z" fill="#8F8FA3"/>
<rect opacity="0.2" x="70.75" y="30.75" width="76.5" height="76.5" rx="38.25" fill="white" stroke="#00AF91" stroke-width="1.5"/>
<path d="M94 79V69C94 65.0218 95.5804 61.2064 98.3934 58.3934C101.206 55.5804 105.022 54 109 54C112.978 54 116.794 55.5804 119.607 58.3934C122.42 61.2064 124 65.0218 124 69V79" stroke="#00AF91" stroke-width="3" stroke-linecap="round" stroke-linejoin="round"/>
<path d="M124 80.6667C124 81.5508 123.649 82.3986 123.024 83.0237C122.399 83.6489 121.551 84 120.667 84H119C118.116 84 117.268 83.6489 116.643 83.0237C116.018 82.3986 115.667 81.5508 115.667 80.6667V75.6667C115.667 74.7827 116.018 73.9348 116.643 73.3097C117.268 72.6846 118.116 72.3334 119 72.3334H124V80.6667ZM94 80.6667C94 81.5508 94.3512 82.3986 94.9763 83.0237C95.6014 83.6489 96.4493 84 97.3333 84H99C99.8841 84 100.732 83.6489 101.357 83.0237C101.982 82.3986 102.333 81.5508 102.333 80.6667V75.6667C102.333 74.7827 101.982 73.9348 101.357 73.3097C100.732 72.6846 99.8841 72.3334 99 72.3334H94V80.6667Z" stroke="#00AF91" stroke-width="3" stroke-linecap="round" stroke-linejoin="round"/>
</svg>
