<svg width="218" height="205" viewBox="0 0 218 205" fill="none" xmlns="http://www.w3.org/2000/svg">
<rect x="0.75" y="0.75" width="216.5" height="203.5" rx="4.25" fill="white" stroke="#EBEBF2" stroke-width="1.5"/>
<path d="M54.6928 136.36C54.6928 137.107 54.5128 137.807 54.1528 138.46C53.8061 139.113 53.2528 139.64 52.4928 140.04C51.7461 140.44 50.7995 140.64 49.6528 140.64H47.3128V146H44.5128V132.04H49.6528C50.7328 132.04 51.6528 132.227 52.4128 132.6C53.1728 132.973 53.7395 133.487 54.1128 134.14C54.4995 134.793 54.6928 135.533 54.6928 136.36ZM49.5328 138.38C50.3061 138.38 50.8795 138.207 51.2528 137.86C51.6261 137.5 51.8128 137 51.8128 136.36C51.8128 135 51.0528 134.32 49.5328 134.32H47.3128V138.38H49.5328ZM62.9208 134.76C63.7608 134.76 64.5074 134.947 65.1608 135.32C65.8141 135.68 66.3208 136.22 66.6808 136.94C67.0541 137.647 67.2408 138.5 67.2408 139.5V146H64.4408V139.88C64.4408 139 64.2208 138.327 63.7808 137.86C63.3408 137.38 62.7408 137.14 61.9808 137.14C61.2074 137.14 60.5941 137.38 60.1408 137.86C59.7008 138.327 59.4808 139 59.4808 139.88V146H56.6808V131.2H59.4808V136.3C59.8408 135.82 60.3208 135.447 60.9208 135.18C61.5208 134.9 62.1874 134.76 62.9208 134.76ZM74.8234 146.18C73.7568 146.18 72.7968 145.947 71.9434 145.48C71.0901 145 70.4168 144.327 69.9234 143.46C69.4434 142.593 69.2034 141.593 69.2034 140.46C69.2034 139.327 69.4501 138.327 69.9434 137.46C70.4501 136.593 71.1368 135.927 72.0034 135.46C72.8701 134.98 73.8368 134.74 74.9034 134.74C75.9701 134.74 76.9368 134.98 77.8034 135.46C78.6701 135.927 79.3501 136.593 79.8434 137.46C80.3501 138.327 80.6034 139.327 80.6034 140.46C80.6034 141.593 80.3434 142.593 79.8234 143.46C79.3168 144.327 78.6234 145 77.7434 145.48C76.8768 145.947 75.9034 146.18 74.8234 146.18ZM74.8234 143.74C75.3301 143.74 75.8034 143.62 76.2434 143.38C76.6968 143.127 77.0568 142.753 77.3234 142.26C77.5901 141.767 77.7234 141.167 77.7234 140.46C77.7234 139.407 77.4434 138.6 76.8834 138.04C76.3368 137.467 75.6634 137.18 74.8634 137.18C74.0634 137.18 73.3901 137.467 72.8434 138.04C72.3101 138.6 72.0434 139.407 72.0434 140.46C72.0434 141.513 72.3034 142.327 72.8234 142.9C73.3568 143.46 74.0234 143.74 74.8234 143.74ZM85.9173 137.22V142.58C85.9173 142.953 86.004 143.227 86.1773 143.4C86.364 143.56 86.6707 143.64 87.0973 143.64H88.3973V146H86.6373C84.2773 146 83.0973 144.853 83.0973 142.56V137.22H81.7773V134.92H83.0973V132.18H85.9173V134.92H88.3973V137.22H85.9173ZM95.3313 146.18C94.2646 146.18 93.3046 145.947 92.4513 145.48C91.5979 145 90.9246 144.327 90.4313 143.46C89.9513 142.593 89.7113 141.593 89.7113 140.46C89.7113 139.327 89.9579 138.327 90.4513 137.46C90.9579 136.593 91.6446 135.927 92.5113 135.46C93.3779 134.98 94.3446 134.74 95.4113 134.74C96.4779 134.74 97.4446 134.98 98.3113 135.46C99.1779 135.927 99.8579 136.593 100.351 137.46C100.858 138.327 101.111 139.327 101.111 140.46C101.111 141.593 100.851 142.593 100.331 143.46C99.8246 144.327 99.1313 145 98.2513 145.48C97.3846 145.947 96.4113 146.18 95.3313 146.18ZM95.3313 143.74C95.8379 143.74 96.3113 143.62 96.7513 143.38C97.2046 143.127 97.5646 142.753 97.8313 142.26C98.0979 141.767 98.2313 141.167 98.2313 140.46C98.2313 139.407 97.9513 138.6 97.3913 138.04C96.8446 137.467 96.1713 137.18 95.3713 137.18C94.5713 137.18 93.8979 137.467 93.3513 138.04C92.8179 138.6 92.5513 139.407 92.5513 140.46C92.5513 141.513 92.8113 142.327 93.3313 142.9C93.8646 143.46 94.5313 143.74 95.3313 143.74ZM107.505 134.74C108.332 134.74 109.058 134.907 109.685 135.24C110.312 135.56 110.805 135.98 111.165 136.5V134.92H113.985V146.08C113.985 147.107 113.778 148.02 113.365 148.82C112.952 149.633 112.332 150.273 111.505 150.74C110.678 151.22 109.678 151.46 108.505 151.46C106.932 151.46 105.638 151.093 104.625 150.36C103.625 149.627 103.058 148.627 102.925 147.36H105.705C105.852 147.867 106.165 148.267 106.645 148.56C107.138 148.867 107.732 149.02 108.425 149.02C109.238 149.02 109.898 148.773 110.405 148.28C110.912 147.8 111.165 147.067 111.165 146.08V144.36C110.805 144.88 110.305 145.313 109.665 145.66C109.038 146.007 108.318 146.18 107.505 146.18C106.572 146.18 105.718 145.94 104.945 145.46C104.172 144.98 103.558 144.307 103.105 143.44C102.665 142.56 102.445 141.553 102.445 140.42C102.445 139.3 102.665 138.307 103.105 137.44C103.558 136.573 104.165 135.907 104.925 135.44C105.698 134.973 106.558 134.74 107.505 134.74ZM111.165 140.46C111.165 139.78 111.032 139.2 110.765 138.72C110.498 138.227 110.138 137.853 109.685 137.6C109.232 137.333 108.745 137.2 108.225 137.2C107.705 137.2 107.225 137.327 106.785 137.58C106.345 137.833 105.985 138.207 105.705 138.7C105.438 139.18 105.305 139.753 105.305 140.42C105.305 141.087 105.438 141.673 105.705 142.18C105.985 142.673 106.345 143.053 106.785 143.32C107.238 143.587 107.718 143.72 108.225 143.72C108.745 143.72 109.232 143.593 109.685 143.34C110.138 143.073 110.498 142.7 110.765 142.22C111.032 141.727 111.165 141.14 111.165 140.46ZM119.52 136.64C119.88 136.053 120.347 135.593 120.92 135.26C121.507 134.927 122.173 134.76 122.92 134.76V137.7H122.18C121.3 137.7 120.633 137.907 120.18 138.32C119.74 138.733 119.52 139.453 119.52 140.48V146H116.72V134.92H119.52V136.64ZM124.086 140.42C124.086 139.3 124.306 138.307 124.746 137.44C125.199 136.573 125.806 135.907 126.566 135.44C127.339 134.973 128.199 134.74 129.146 134.74C129.972 134.74 130.692 134.907 131.306 135.24C131.932 135.573 132.432 135.993 132.806 136.5V134.92H135.626V146H132.806V144.38C132.446 144.9 131.946 145.333 131.306 145.68C130.679 146.013 129.952 146.18 129.126 146.18C128.192 146.18 127.339 145.94 126.566 145.46C125.806 144.98 125.199 144.307 124.746 143.44C124.306 142.56 124.086 141.553 124.086 140.42ZM132.806 140.46C132.806 139.78 132.672 139.2 132.406 138.72C132.139 138.227 131.779 137.853 131.326 137.6C130.872 137.333 130.386 137.2 129.866 137.2C129.346 137.2 128.866 137.327 128.426 137.58C127.986 137.833 127.626 138.207 127.346 138.7C127.079 139.18 126.946 139.753 126.946 140.42C126.946 141.087 127.079 141.673 127.346 142.18C127.626 142.673 127.986 143.053 128.426 143.32C128.879 143.587 129.359 143.72 129.866 143.72C130.386 143.72 130.872 143.593 131.326 143.34C131.779 143.073 132.139 142.7 132.406 142.22C132.672 141.727 132.806 141.14 132.806 140.46ZM141.16 136.52C141.52 136.013 142.014 135.593 142.64 135.26C143.28 134.913 144.007 134.74 144.82 134.74C145.767 134.74 146.62 134.973 147.38 135.44C148.154 135.907 148.76 136.573 149.2 137.44C149.654 138.293 149.88 139.287 149.88 140.42C149.88 141.553 149.654 142.56 149.2 143.44C148.76 144.307 148.154 144.98 147.38 145.46C146.62 145.94 145.767 146.18 144.82 146.18C144.007 146.18 143.287 146.013 142.66 145.68C142.047 145.347 141.547 144.927 141.16 144.42V151.28H138.36V134.92H141.16V136.52ZM147.02 140.42C147.02 139.753 146.88 139.18 146.6 138.7C146.334 138.207 145.974 137.833 145.52 137.58C145.08 137.327 144.6 137.2 144.08 137.2C143.574 137.2 143.094 137.333 142.64 137.6C142.2 137.853 141.84 138.227 141.56 138.72C141.294 139.213 141.16 139.793 141.16 140.46C141.16 141.127 141.294 141.707 141.56 142.2C141.84 142.693 142.2 143.073 142.64 143.34C143.094 143.593 143.574 143.72 144.08 143.72C144.6 143.72 145.08 143.587 145.52 143.32C145.974 143.053 146.334 142.673 146.6 142.18C146.88 141.687 147.02 141.1 147.02 140.42ZM158.155 134.76C158.995 134.76 159.742 134.947 160.395 135.32C161.048 135.68 161.555 136.22 161.915 136.94C162.288 137.647 162.475 138.5 162.475 139.5V146H159.675V139.88C159.675 139 159.455 138.327 159.015 137.86C158.575 137.38 157.975 137.14 157.215 137.14C156.442 137.14 155.828 137.38 155.375 137.86C154.935 138.327 154.715 139 154.715 139.88V146H151.915V131.2H154.715V136.3C155.075 135.82 155.555 135.447 156.155 135.18C156.755 134.9 157.422 134.76 158.155 134.76ZM175.738 134.92L168.878 151.24H165.898L168.298 145.72L163.858 134.92H166.998L169.858 142.66L172.758 134.92H175.738Z" fill="#202029"/>
<path d="M73.6941 159.984H68.7801V163.176C68.9947 162.877 69.3121 162.635 69.7321 162.448C70.1521 162.252 70.6047 162.154 71.0901 162.154C71.8647 162.154 72.4947 162.317 72.9801 162.644C73.4654 162.961 73.8107 163.377 74.0161 163.89C74.2307 164.394 74.3381 164.931 74.3381 165.5C74.3381 166.172 74.2121 166.774 73.9601 167.306C73.7081 167.838 73.3207 168.258 72.7981 168.566C72.2847 168.874 71.6454 169.028 70.8801 169.028C69.9001 169.028 69.1067 168.776 68.5001 168.272C67.8934 167.768 67.5247 167.096 67.3941 166.256H68.6401C68.7614 166.788 69.0181 167.203 69.4101 167.502C69.8021 167.801 70.2967 167.95 70.8941 167.95C71.6314 167.95 72.1867 167.731 72.5601 167.292C72.9334 166.844 73.1201 166.256 73.1201 165.528C73.1201 164.8 72.9334 164.24 72.5601 163.848C72.1867 163.447 71.6361 163.246 70.9081 163.246C70.4134 163.246 69.9794 163.367 69.6061 163.61C69.2421 163.843 68.9761 164.165 68.8081 164.576H67.6041V158.864H73.6941V159.984ZM77.8791 163.736C77.3564 163.531 76.9551 163.232 76.6751 162.84C76.3951 162.448 76.2551 161.972 76.2551 161.412C76.2551 160.908 76.3811 160.455 76.6331 160.054C76.8851 159.643 77.2584 159.321 77.7531 159.088C78.2571 158.845 78.8638 158.724 79.5731 158.724C80.2824 158.724 80.8844 158.845 81.3791 159.088C81.8831 159.321 82.2611 159.643 82.5131 160.054C82.7744 160.455 82.9051 160.908 82.9051 161.412C82.9051 161.953 82.7604 162.429 82.4711 162.84C82.1818 163.241 81.7851 163.54 81.2811 163.736C81.8598 163.913 82.3171 164.226 82.6531 164.674C82.9984 165.113 83.1711 165.645 83.1711 166.27C83.1711 166.877 83.0218 167.409 82.7231 167.866C82.4244 168.314 81.9998 168.664 81.4491 168.916C80.9078 169.159 80.2824 169.28 79.5731 169.28C78.8638 169.28 78.2384 169.159 77.6971 168.916C77.1651 168.664 76.7498 168.314 76.4511 167.866C76.1524 167.409 76.0031 166.877 76.0031 166.27C76.0031 165.645 76.1711 165.108 76.5071 164.66C76.8431 164.212 77.3004 163.904 77.8791 163.736ZM81.6731 161.566C81.6731 160.997 81.4864 160.558 81.1131 160.25C80.7398 159.942 80.2264 159.788 79.5731 159.788C78.9291 159.788 78.4204 159.942 78.0471 160.25C77.6738 160.558 77.4871 161.001 77.4871 161.58C77.4871 162.103 77.6784 162.523 78.0611 162.84C78.4531 163.157 78.9571 163.316 79.5731 163.316C80.1984 163.316 80.7024 163.157 81.0851 162.84C81.4771 162.513 81.6731 162.089 81.6731 161.566ZM79.5731 164.296C78.8824 164.296 78.3178 164.459 77.8791 164.786C77.4404 165.103 77.2211 165.584 77.2211 166.228C77.2211 166.825 77.4311 167.306 77.8511 167.67C78.2804 168.034 78.8544 168.216 79.5731 168.216C80.2918 168.216 80.8611 168.034 81.2811 167.67C81.7011 167.306 81.9111 166.825 81.9111 166.228C81.9111 165.603 81.6964 165.127 81.2671 164.8C80.8378 164.464 80.2731 164.296 79.5731 164.296ZM91.0931 159.872L87.2011 169H85.9131L89.8611 159.998H84.4571V158.906H91.0931V159.872ZM95.9721 164.114C95.9721 163.162 96.1868 162.308 96.6161 161.552C97.0455 160.787 97.6288 160.189 98.3661 159.76C99.1128 159.331 99.9388 159.116 100.844 159.116C101.908 159.116 102.837 159.373 103.63 159.886C104.423 160.399 105.002 161.127 105.366 162.07H103.84C103.569 161.482 103.177 161.029 102.664 160.712C102.16 160.395 101.553 160.236 100.844 160.236C100.163 160.236 99.5515 160.395 99.0101 160.712C98.4688 161.029 98.0441 161.482 97.7361 162.07C97.4281 162.649 97.2741 163.33 97.2741 164.114C97.2741 164.889 97.4281 165.57 97.7361 166.158C98.0441 166.737 98.4688 167.185 99.0101 167.502C99.5515 167.819 100.163 167.978 100.844 167.978C101.553 167.978 102.16 167.824 102.664 167.516C103.177 167.199 103.569 166.746 103.84 166.158H105.366C105.002 167.091 104.423 167.815 103.63 168.328C102.837 168.832 101.908 169.084 100.844 169.084C99.9388 169.084 99.1128 168.874 98.3661 168.454C97.6288 168.025 97.0455 167.432 96.6161 166.676C96.1868 165.92 95.9721 165.066 95.9721 164.114ZM110.609 169.126C109.89 169.126 109.237 168.963 108.649 168.636C108.07 168.309 107.613 167.847 107.277 167.25C106.95 166.643 106.787 165.943 106.787 165.15C106.787 164.366 106.955 163.675 107.291 163.078C107.636 162.471 108.103 162.009 108.691 161.692C109.279 161.365 109.937 161.202 110.665 161.202C111.393 161.202 112.051 161.365 112.639 161.692C113.227 162.009 113.689 162.467 114.025 163.064C114.37 163.661 114.543 164.357 114.543 165.15C114.543 165.943 114.365 166.643 114.011 167.25C113.665 167.847 113.194 168.309 112.597 168.636C111.999 168.963 111.337 169.126 110.609 169.126ZM110.609 168.006C111.066 168.006 111.495 167.899 111.897 167.684C112.298 167.469 112.62 167.147 112.863 166.718C113.115 166.289 113.241 165.766 113.241 165.15C113.241 164.534 113.119 164.011 112.877 163.582C112.634 163.153 112.317 162.835 111.925 162.63C111.533 162.415 111.108 162.308 110.651 162.308C110.184 162.308 109.755 162.415 109.363 162.63C108.98 162.835 108.672 163.153 108.439 163.582C108.205 164.011 108.089 164.534 108.089 165.15C108.089 165.775 108.201 166.303 108.425 166.732C108.658 167.161 108.966 167.483 109.349 167.698C109.731 167.903 110.151 168.006 110.609 168.006ZM123.022 161.328V169H121.748V167.866C121.505 168.258 121.164 168.566 120.726 168.79C120.296 169.005 119.82 169.112 119.298 169.112C118.7 169.112 118.164 168.991 117.688 168.748C117.212 168.496 116.834 168.123 116.554 167.628C116.283 167.133 116.148 166.531 116.148 165.822V161.328H117.408V165.654C117.408 166.41 117.599 166.993 117.982 167.404C118.364 167.805 118.887 168.006 119.55 168.006C120.231 168.006 120.768 167.796 121.16 167.376C121.552 166.956 121.748 166.345 121.748 165.542V161.328H123.022ZM126.447 162.574C126.671 162.135 126.988 161.795 127.399 161.552C127.819 161.309 128.327 161.188 128.925 161.188V162.504H128.589C127.161 162.504 126.447 163.279 126.447 164.828V169H125.173V161.328H126.447V162.574ZM133.111 169.126C132.523 169.126 131.996 169.028 131.529 168.832C131.063 168.627 130.694 168.347 130.423 167.992C130.153 167.628 130.003 167.213 129.975 166.746H131.291C131.329 167.129 131.506 167.441 131.823 167.684C132.15 167.927 132.575 168.048 133.097 168.048C133.583 168.048 133.965 167.941 134.245 167.726C134.525 167.511 134.665 167.241 134.665 166.914C134.665 166.578 134.516 166.331 134.217 166.172C133.919 166.004 133.457 165.841 132.831 165.682C132.262 165.533 131.795 165.383 131.431 165.234C131.077 165.075 130.769 164.847 130.507 164.548C130.255 164.24 130.129 163.839 130.129 163.344C130.129 162.952 130.246 162.593 130.479 162.266C130.713 161.939 131.044 161.683 131.473 161.496C131.903 161.3 132.393 161.202 132.943 161.202C133.793 161.202 134.479 161.417 135.001 161.846C135.524 162.275 135.804 162.863 135.841 163.61H134.567C134.539 163.209 134.376 162.887 134.077 162.644C133.788 162.401 133.396 162.28 132.901 162.28C132.444 162.28 132.08 162.378 131.809 162.574C131.539 162.77 131.403 163.027 131.403 163.344C131.403 163.596 131.483 163.806 131.641 163.974C131.809 164.133 132.015 164.263 132.257 164.366C132.509 164.459 132.855 164.567 133.293 164.688C133.844 164.837 134.292 164.987 134.637 165.136C134.983 165.276 135.277 165.491 135.519 165.78C135.771 166.069 135.902 166.447 135.911 166.914C135.911 167.334 135.795 167.712 135.561 168.048C135.328 168.384 134.997 168.65 134.567 168.846C134.147 169.033 133.662 169.126 133.111 169.126ZM144.71 164.87C144.71 165.113 144.696 165.369 144.668 165.64H138.536C138.583 166.396 138.839 166.989 139.306 167.418C139.782 167.838 140.356 168.048 141.028 168.048C141.579 168.048 142.036 167.922 142.4 167.67C142.773 167.409 143.035 167.063 143.184 166.634H144.556C144.351 167.371 143.94 167.973 143.324 168.44C142.708 168.897 141.943 169.126 141.028 169.126C140.3 169.126 139.647 168.963 139.068 168.636C138.499 168.309 138.051 167.847 137.724 167.25C137.397 166.643 137.234 165.943 137.234 165.15C137.234 164.357 137.393 163.661 137.71 163.064C138.027 162.467 138.471 162.009 139.04 161.692C139.619 161.365 140.281 161.202 141.028 161.202C141.756 161.202 142.4 161.361 142.96 161.678C143.52 161.995 143.949 162.434 144.248 162.994C144.556 163.545 144.71 164.17 144.71 164.87ZM143.394 164.604C143.394 164.119 143.287 163.703 143.072 163.358C142.857 163.003 142.563 162.737 142.19 162.56C141.826 162.373 141.42 162.28 140.972 162.28C140.328 162.28 139.777 162.485 139.32 162.896C138.872 163.307 138.615 163.876 138.55 164.604H143.394ZM149.107 169.126C148.519 169.126 147.992 169.028 147.525 168.832C147.059 168.627 146.69 168.347 146.419 167.992C146.149 167.628 145.999 167.213 145.971 166.746H147.287C147.325 167.129 147.502 167.441 147.819 167.684C148.146 167.927 148.571 168.048 149.093 168.048C149.579 168.048 149.961 167.941 150.241 167.726C150.521 167.511 150.661 167.241 150.661 166.914C150.661 166.578 150.512 166.331 150.213 166.172C149.915 166.004 149.453 165.841 148.827 165.682C148.258 165.533 147.791 165.383 147.427 165.234C147.073 165.075 146.765 164.847 146.503 164.548C146.251 164.24 146.125 163.839 146.125 163.344C146.125 162.952 146.242 162.593 146.475 162.266C146.709 161.939 147.04 161.683 147.469 161.496C147.899 161.3 148.389 161.202 148.939 161.202C149.789 161.202 150.475 161.417 150.997 161.846C151.52 162.275 151.8 162.863 151.837 163.61H150.563C150.535 163.209 150.372 162.887 150.073 162.644C149.784 162.401 149.392 162.28 148.897 162.28C148.44 162.28 148.076 162.378 147.805 162.574C147.535 162.77 147.399 163.027 147.399 163.344C147.399 163.596 147.479 163.806 147.637 163.974C147.805 164.133 148.011 164.263 148.253 164.366C148.505 164.459 148.851 164.567 149.289 164.688C149.84 164.837 150.288 164.987 150.633 165.136C150.979 165.276 151.273 165.491 151.515 165.78C151.767 166.069 151.898 166.447 151.907 166.914C151.907 167.334 151.791 167.712 151.557 168.048C151.324 168.384 150.993 168.65 150.563 168.846C150.143 169.033 149.658 169.126 149.107 169.126Z" fill="#8F8FA3"/>
<rect opacity="0.2" x="70.75" y="30.75" width="76.5" height="76.5" rx="38.25" fill="white" stroke="#F15C4C" stroke-width="1.5"/>
<path d="M127.333 80.6667C127.333 81.5507 126.982 82.3986 126.357 83.0237C125.732 83.6488 124.884 84 124 84H94.0001C93.116 84 92.2682 83.6488 91.6431 83.0237C91.0179 82.3986 90.6667 81.5507 90.6667 80.6667V62.3333C90.6667 61.4493 91.0179 60.6014 91.6431 59.9763C92.2682 59.3512 93.116 59 94.0001 59H100.667L104 54H114L117.333 59H124C124.884 59 125.732 59.3512 126.357 59.9763C126.982 60.6014 127.333 61.4493 127.333 62.3333V80.6667Z" stroke="#F15C4C" stroke-width="3" stroke-linecap="round" stroke-linejoin="round"/>
<path d="M109 77.3333C112.682 77.3333 115.667 74.3486 115.667 70.6667C115.667 66.9848 112.682 64 109 64C105.318 64 102.333 66.9848 102.333 70.6667C102.333 74.3486 105.318 77.3333 109 77.3333Z" stroke="#F15C4C" stroke-width="3" stroke-linecap="round" stroke-linejoin="round"/>
</svg>
