<svg width="100" height="20" viewBox="0 0 100 20" fill="none" xmlns="http://www.w3.org/2000/svg">
<path fill-rule="evenodd" clip-rule="evenodd" d="M10.9444 3.34287L12.7457 6.96656C12.8359 7.14934 13.0102 7.2769 13.2124 7.30645L17.2452 7.88901C17.4085 7.91079 17.5555 7.99635 17.6559 8.12701C17.8441 8.37201 17.8153 8.71891 17.5898 8.92969L14.6668 11.7561C14.5183 11.8961 14.4522 12.1015 14.4911 12.3014L15.1911 16.2898C15.2401 16.6204 15.0145 16.93 14.684 16.9836C14.5471 17.0046 14.4071 16.9829 14.2826 16.9214L10.6908 15.0384C10.5104 14.9404 10.2941 14.9404 10.1137 15.0384L6.49546 16.9315C6.1929 17.0855 5.82267 16.9712 5.65778 16.6748C5.59478 16.5551 5.57301 16.419 5.59478 16.286L6.29479 12.2975C6.32979 12.0984 6.26368 11.8938 6.11901 11.753L3.18055 8.92735C2.94099 8.68935 2.93943 8.30201 3.17821 8.06246C3.17899 8.06168 3.17977 8.06012 3.18055 8.05935C3.27932 7.9699 3.40066 7.91001 3.5321 7.88668L7.56569 7.30412C7.76713 7.27223 7.94058 7.14623 8.03236 6.96345L9.83215 3.34287C9.90448 3.19587 10.0328 3.08309 10.1884 3.03176C10.3447 2.97965 10.5158 2.99209 10.6628 3.06598C10.7834 3.12587 10.8822 3.22309 10.9444 3.34287Z" fill="#FF7A1A"/>
<path fill-rule="evenodd" clip-rule="evenodd" d="M30.9444 3.34287L32.7457 6.96656C32.8359 7.14934 33.0102 7.2769 33.2124 7.30645L37.2452 7.88901C37.4085 7.91079 37.5555 7.99635 37.6559 8.12701C37.8441 8.37201 37.8153 8.71891 37.5898 8.92969L34.6668 11.7561C34.5183 11.8961 34.4522 12.1015 34.4911 12.3014L35.1911 16.2898C35.2401 16.6204 35.0145 16.93 34.684 16.9836C34.5471 17.0046 34.4071 16.9829 34.2826 16.9214L30.6908 15.0384C30.5104 14.9404 30.2941 14.9404 30.1137 15.0384L26.4955 16.9315C26.1929 17.0855 25.8227 16.9712 25.6578 16.6748C25.5948 16.5551 25.573 16.419 25.5948 16.286L26.2948 12.2975C26.3298 12.0984 26.2637 11.8938 26.119 11.753L23.1805 8.92735C22.941 8.68935 22.9394 8.30201 23.1782 8.06246C23.179 8.06168 23.1798 8.06012 23.1805 8.05935C23.2793 7.9699 23.4007 7.91001 23.5321 7.88668L27.5657 7.30412C27.7671 7.27223 27.9406 7.14623 28.0324 6.96345L29.8321 3.34287C29.9045 3.19587 30.0328 3.08309 30.1884 3.03176C30.3447 2.97965 30.5158 2.99209 30.6628 3.06598C30.7834 3.12587 30.8822 3.22309 30.9444 3.34287Z" fill="#FF7A1A"/>
<path fill-rule="evenodd" clip-rule="evenodd" d="M50.9444 3.34287L52.7457 6.96656C52.8359 7.14934 53.0102 7.2769 53.2124 7.30645L57.2452 7.88901C57.4085 7.91079 57.5555 7.99635 57.6559 8.12701C57.8441 8.37201 57.8153 8.71891 57.5898 8.92969L54.6668 11.7561C54.5183 11.8961 54.4522 12.1015 54.4911 12.3014L55.1911 16.2898C55.2401 16.6204 55.0145 16.93 54.684 16.9836C54.5471 17.0046 54.4071 16.9829 54.2826 16.9214L50.6908 15.0384C50.5104 14.9404 50.2941 14.9404 50.1137 15.0384L46.4955 16.9315C46.1929 17.0855 45.8227 16.9712 45.6578 16.6748C45.5948 16.5551 45.573 16.419 45.5948 16.286L46.2948 12.2975C46.3298 12.0984 46.2637 11.8938 46.119 11.753L43.1805 8.92735C42.941 8.68935 42.9394 8.30201 43.1782 8.06246C43.179 8.06168 43.1798 8.06012 43.1805 8.05935C43.2793 7.9699 43.4007 7.91001 43.5321 7.88668L47.5657 7.30412C47.7671 7.27223 47.9406 7.14623 48.0324 6.96345L49.8321 3.34287C49.9045 3.19587 50.0328 3.08309 50.1884 3.03176C50.3447 2.97965 50.5158 2.99209 50.6628 3.06598C50.7834 3.12587 50.8822 3.22309 50.9444 3.34287Z" fill="#FF7A1A"/>
<path fill-rule="evenodd" clip-rule="evenodd" d="M70.9444 3.34287L72.7457 6.96656C72.8359 7.14934 73.0102 7.2769 73.2124 7.30645L77.2452 7.88901C77.4085 7.91079 77.5555 7.99635 77.6559 8.12701C77.8441 8.37201 77.8153 8.71891 77.5898 8.92969L74.6668 11.7561C74.5183 11.8961 74.4522 12.1015 74.4911 12.3014L75.1911 16.2898C75.2401 16.6204 75.0145 16.93 74.684 16.9836C74.5471 17.0046 74.4071 16.9829 74.2826 16.9214L70.6908 15.0384C70.5104 14.9404 70.2941 14.9404 70.1137 15.0384L66.4955 16.9315C66.1929 17.0855 65.8227 16.9712 65.6578 16.6748C65.5948 16.5551 65.573 16.419 65.5948 16.286L66.2948 12.2975C66.3298 12.0984 66.2637 11.8938 66.119 11.753L63.1805 8.92735C62.941 8.68935 62.9394 8.30201 63.1782 8.06246C63.179 8.06168 63.1798 8.06012 63.1805 8.05935C63.2793 7.9699 63.4007 7.91001 63.5321 7.88668L67.5657 7.30412C67.7671 7.27223 67.9406 7.14623 68.0324 6.96345L69.8321 3.34287C69.9045 3.19587 70.0328 3.08309 70.1884 3.03176C70.3447 2.97965 70.5158 2.99209 70.6628 3.06598C70.7834 3.12587 70.8822 3.22309 70.9444 3.34287Z" fill="#FF7A1A"/>
<path fill-rule="evenodd" clip-rule="evenodd" d="M90.9444 3.34287L92.7457 6.96656C92.8359 7.14934 93.0102 7.2769 93.2124 7.30645L97.2452 7.88901C97.4085 7.91079 97.5555 7.99635 97.6559 8.12701C97.8441 8.37201 97.8153 8.71891 97.5898 8.92969L94.6668 11.7561C94.5183 11.8961 94.4522 12.1015 94.4911 12.3014L95.1911 16.2898C95.2401 16.6204 95.0145 16.93 94.684 16.9836C94.5471 17.0046 94.4071 16.9829 94.2826 16.9214L90.6908 15.0384C90.5104 14.9404 90.2941 14.9404 90.1137 15.0384L86.4955 16.9315C86.1929 17.0855 85.8227 16.9712 85.6578 16.6748C85.5948 16.5551 85.573 16.419 85.5948 16.286L86.2948 12.2975C86.3298 12.0984 86.2637 11.8938 86.119 11.753L83.1805 8.92735C82.941 8.68935 82.9394 8.30201 83.1782 8.06246C83.179 8.06168 83.1798 8.06012 83.1805 8.05935C83.2793 7.9699 83.4007 7.91001 83.5321 7.88668L87.5657 7.30412C87.7671 7.27223 87.9406 7.14623 88.0324 6.96345L89.8321 3.34287C89.9045 3.19587 90.0328 3.08309 90.1884 3.03176C90.3447 2.97965 90.5158 2.99209 90.6628 3.06598C90.7834 3.12587 90.8822 3.22309 90.9444 3.34287Z" fill="#FF7A1A"/>
</svg>
