<svg width="18" height="13" viewBox="0 0 18 13" fill="none" xmlns="http://www.w3.org/2000/svg">
<path fill-rule="evenodd" clip-rule="evenodd" d="M16.0427 0.385481C16.8137 0.593122 17.4216 1.20094 17.6291 1.97204C18.0148 3.38048 17.9999 6.31629 17.9999 6.31629C17.9999 6.31629 17.9999 9.23713 17.6293 10.6457C17.4216 11.4167 16.8138 12.0246 16.0427 12.2321C14.6341 12.6029 8.99996 12.6029 8.99996 12.6029C8.99996 12.6029 3.38048 12.6029 1.95721 12.2174C1.18611 12.0098 0.57829 11.4018 0.37065 10.6309C0 9.23713 0 6.30146 0 6.30146C0 6.30146 0 3.38048 0.37065 1.97204C0.578153 1.20108 1.20094 0.57829 1.95707 0.370787C3.36565 0 8.99983 0 8.99983 0C8.99983 0 14.6341 0 16.0427 0.385481ZM11.8913 6.30154L7.20605 9.00006V3.60303L11.8913 6.30154Z" fill="#EBEBF2"/>
</svg>
